<!-- https://www.svgrepo.com/collection/game-skills-vectors/ -->
<!-- https://www.svgrepo.com/collection/fluent-ui-icons-filled/ -->

<svg xmlns="http://www.w3.org/2000/svg">

  <symbol id="svg-svg" width="100%" viewBox="0 0 512 512" preserveAspectRatio="xMidYMid meet">

  </symbol>

  <symbol id="home" width="100%" viewBox="0 0 24 24" preserveAspectRatio="xMidYMid meet">
    <path d="M20.707 11.293l-8-8a1 1 0 0 0-1.414 0l-8 8a1 1 0 0 0 1.414 1.414L5 12.414V20a1 1 0 0 0 1 1h12a1 1 0 0 0 1-1v-7.586l.293.293a1 1 0 0 0 1.414-1.414zM13 19h-2v-4h2v4zm4 0h-2v-5a1 1 0 0 0-1-1h-4a1 1 0 0 0-1 1v5H7v-8.586l5-5 5 5V19z"/>
  </symbol>

  <symbol id="caret-up" width="100%" viewBox="0 0 24 15.073" preserveAspectRatio="xMidYMid meet">
    <path d="m2.1018 15.073c-1.8023 0-2.7655-2.1227-1.5787-3.4791l9.2667-10.591c1.17-1.3372 3.2503-1.3372 4.4204 0l9.2668 10.591c1.1866 1.3563 0.22354 3.4791-1.5788 3.4791z"/>
  </symbol>

  <symbol id="caret-down" width="100%" viewBox="0 0 24 15.073" preserveAspectRatio="xMidYMid meet">
    <path d="m2.1018 0c-1.8023 0-2.7655 2.1227-1.5787 3.4791l9.2667 10.591c1.17 1.3372 3.2503 1.3372 4.4204 0l9.2668-10.591c1.1866-1.3563 0.22354-3.4791-1.5788-3.4791z"/>
  </symbol>

  <symbol id="star" width="100%" viewBox="0 0 28 28" preserveAspectRatio="xMidYMid meet">
    <path d="M14.4373398,3.10348696 C14.6345524,3.20081719 14.7941799,3.36044472 14.8915102,3.55765732 L17.8153782,9.48206111 L24.353346,10.4320834 C24.8998908,10.511501 25.2785723,11.0189439 25.1991547,11.5654888 C25.1675302,11.7831258 25.065043,11.9842682 24.9075593,12.1377768 L20.1766414,16.749282 L21.2934597,23.2608319 C21.3868207,23.8051684 21.0212328,24.3221243 20.4768964,24.4154853 C20.2601388,24.4526621 20.0371707,24.4173475 19.8425102,24.3150084 L13.9947741,21.2406716 L8.14703796,24.3150084 C7.65819337,24.5720092 7.05356621,24.3840627 6.79656541,23.8952181 C6.69422634,23.7005576 6.65891166,23.4775895 6.69608851,23.2608319 L7.81290673,16.749282 L3.08198882,12.1377768 C2.68650524,11.7522756 2.67841294,11.1191623 3.06391415,10.7236788 C3.21742275,10.5661951 3.41856517,10.4637079 3.6362022,10.4320834 L10.1741699,9.48206111 L13.098038,3.55765732 C13.3424603,3.06240366 13.9420861,2.85906466 14.4373398,3.10348696 Z" />
  </symbol>

  <symbol id="people" width="100%" viewBox="0 0 28 28" preserveAspectRatio="xMidYMid meet">
<!--    <path d="M17.7540247,11 C18.720523,11 19.5040247,11.7835017 19.5040247,12.75 L19.5040247,19.4989513 C19.5040247,22.5370966 17.0411213,25 14.002976,25 C10.9648308,25 8.50192738,22.5370966 8.50192738,19.4989513 L8.50192738,12.75 C8.50192738,11.7835017 9.28542907,11 10.2519274,11 L17.7540247,11 Z M3.75,11 L8.13210827,10.9980646 C7.78221386,11.420954 7.55643325,11.9502867 7.51057947,12.5302496 L7.50192738,12.75 L7.50192738,19.4989513 C7.50192738,20.6323434 7.79196393,21.6979939 8.30186513,22.6257307 C7.75085328,22.8662539 7.14166566,23 6.50123996,23 C4.01527377,23 2,20.9847262 2,18.49876 L2,12.75 C2,11.7835017 2.78350169,11 3.75,11 Z M19.8738438,10.9980646 L24.25,11 C25.2164983,11 26,11.7835017 26,12.75 L26,18.5 C26,20.9852814 23.9852814,23 21.5,23 C20.8609276,23 20.2529701,22.8667819 19.7023824,22.6266008 L19.7581025,22.5253735 C20.1867892,21.7118524 20.4480368,20.7963864 20.4959995,19.8248213 L20.5040247,19.4989513 L20.5040247,12.75 C20.5040247,12.084283 20.267475,11.4738152 19.8738438,10.9980646 Z M14,3 C15.9329966,3 17.5,4.56700338 17.5,6.5 C17.5,8.43299662 15.9329966,10 14,10 C12.0670034,10 10.5,8.43299662 10.5,6.5 C10.5,4.56700338 12.0670034,3 14,3 Z M22.0029842,4 C23.6598384,4 25.0029842,5.34314575 25.0029842,7 C25.0029842,8.65685425 23.6598384,10 22.0029842,10 C20.3461299,10 19.0029842,8.65685425 19.0029842,7 C19.0029842,5.34314575 20.3461299,4 22.0029842,4 Z M5.99701582,4 C7.65387007,4 8.99701582,5.34314575 8.99701582,7 C8.99701582,8.65685425 7.65387007,10 5.99701582,10 C4.34016157,10 2.99701582,8.65685425 2.99701582,7 C2.99701582,5.34314575 4.34016157,4 5.99701582,4 Z" />-->
<!--    <path d="M17.75,18 C18.7164983,18 19.5,18.7835017 19.5,19.75 L19.5,21.7519766 L19.4921156,21.8604403 C19.1813607,23.9866441 17.2715225,25.0090369 14.0667905,25.0090369 C10.8736123,25.0090369 8.93330141,23.9983408 8.51446278,21.8965776 L8.5,21.75 L8.5,19.75 C8.5,18.7835017 9.28350169,18 10.25,18 L17.75,18 Z M18.2439108,11.9999135 L24.25,12 C25.2164983,12 26,12.7835017 26,13.75 L26,15.7519766 L25.9921156,15.8604403 C25.6813607,17.9866441 23.7715225,19.0090369 20.5667905,19.0090369 L20.3985759,19.007437 C20.0900029,17.9045277 19.1110503,17.0815935 17.9288034,17.0057197 L17.75,17 L16.8277704,17.0007255 C17.8477843,16.1757619 18.5,14.9140475 18.5,13.5 C18.5,12.9740145 18.4097576,12.4691063 18.2439108,11.9999135 Z M3.75,12 L9.75608915,11.9999135 C9.59024243,12.4691063 9.5,12.9740145 9.5,13.5 C9.5,14.8308682 10.0777413,16.0267978 10.996103,16.8506678 L11.1722296,17.0007255 L10.25,17 C8.9877951,17 7.92420242,17.85036 7.60086562,19.0094363 L7.5667905,19.0090369 C4.37361228,19.0090369 2.43330141,17.9983408 2.01446278,15.8965776 L2,15.75 L2,13.75 C2,12.7835017 2.78350169,12 3.75,12 Z M14,10 C15.9329966,10 17.5,11.5670034 17.5,13.5 C17.5,15.4329966 15.9329966,17 14,17 C12.0670034,17 10.5,15.4329966 10.5,13.5 C10.5,11.5670034 12.0670034,10 14,10 Z M20.5,4 C22.4329966,4 24,5.56700338 24,7.5 C24,9.43299662 22.4329966,11 20.5,11 C18.5670034,11 17,9.43299662 17,7.5 C17,5.56700338 18.5670034,4 20.5,4 Z M7.5,4 C9.43299662,4 11,5.56700338 11,7.5 C11,9.43299662 9.43299662,11 7.5,11 C5.56700338,11 4,9.43299662 4,7.5 C4,5.56700338 5.56700338,4 7.5,4 Z" />-->
    <path d="M4,16 L15,16.001 C16.0538182,16.001 16.9181157,16.8164855 16.9945109,17.8516842 L17,18.001 L17,20.5 C16.999,24.7 12.713,26 9.5,26 C6.35126,26 2.1710504,24.75148 2.00510151,20.7485328 L2,20.5 L2,18 C2,16.9461818 2.81639669,16.0818843 3.85080841,16.0054891 L4,16 Z M17.22,16.001 L24,16 C25.0538182,16 25.9181157,16.8163967 25.9945109,17.8508084 L26,18 L26,20 C25.999,23.759 22.57,25 20,25 C18.942,25 17.741,24.785 16.691,24.275 C17.4432667,23.3808667 17.9315867,22.2428222 17.9933526,20.8112714 L18,20.5 L18,18.001 C18,17.2991818 17.7512397,16.6601736 17.3461307,16.1500909 L17.22,16.001 L24,16 L17.22,16.001 Z M9.5,3 C12.537,3 15,5.463 15,8.5 C15,11.537 12.537,14 9.5,14 C6.463,14 4,11.537 4,8.5 C4,5.463 6.463,3 9.5,3 Z M20.5,5 C22.985,5 25,7.015 25,9.5 C25,11.985 22.985,14 20.5,14 C18.015,14 16,11.985 16,9.5 C16,7.015 18.015,5 20.5,5 Z" />
  </symbol>

  <symbol id="18-plus" width="100%" viewBox="0 0 328.863 328.863" preserveAspectRatio="xMidYMid meet">
    <path d="M104.032,220.434V131.15H83.392V108.27h49.121v112.164H104.032z"/>
    <path d="M239.552,137.23c0,9.76-5.28,18.4-14.08,23.201c12.319,5.119,20,15.84,20,28.32c0,20.16-17.921,32.961-45.921,32.961 c-28.001,0-45.921-12.641-45.921-32.48c0-12.801,8.32-23.682,21.28-28.801c-9.44-5.281-15.52-14.24-15.52-24 c0-17.922,15.681-29.281,40.001-29.281C224.031,107.15,239.552,118.83,239.552,137.23z M180.51,186.352 c0,9.441,6.721,14.721,19.041,14.721c12.32,0,19.2-5.119,19.2-14.721c0-9.279-6.88-14.561-19.2-14.561 C187.23,171.791,180.51,177.072,180.51,186.352z M183.391,138.83c0,8.002,5.76,12.48,16.16,12.48c10.4,0,16.16-4.479,16.16-12.48 c0-8.318-5.76-12.959-16.16-12.959C189.15,125.871,183.391,130.512,183.391,138.83z"/>
    <path d="M292.864,120.932c4.735,13.975,7.137,28.592,7.137,43.5c0,74.752-60.816,135.568-135.569,135.568 S28.862,239.184,28.862,164.432c0-74.754,60.816-135.568,135.569-135.568c14.91,0,29.527,2.4,43.5,7.137V5.832 C193.817,1.963,179.24,0,164.432,0C73.765,0,0.001,73.764,0.001,164.432s73.764,164.432,164.431,164.432 S328.862,255.1,328.862,164.432c0-14.807-1.962-29.385-5.831-43.5H292.864z"/>
    <polygon points="284.659,44.111 284.659,12.582 261.987,12.582 261.987,44.111 230.647,44.111 230.647,66.781 261.987,66.781  261.987,98.309 284.659,98.309 284.659,66.781 316.186,66.781 316.186,44.111 "/>
  </symbol>

</svg>
