<!-- https://www.svgrepo.com/collection/international-flags-6/ -->
<!-- https://www.svgrepo.com/collection/countrys-flags/ -->

<svg xmlns="http://www.w3.org/2000/svg">

  <symbol id="flag-template" width="100%" viewBox="0 0 512 512" preserveAspectRatio="xMidYMid meet">

  </symbol>

  <symbol id="unknown" width="100%" viewBox="0 0 512 512" preserveAspectRatio="xMidYMid meet">
    <path d="M473.655,88.275H38.345C17.167,88.275,0,105.442,0,126.62V385.38 c0,21.177,17.167,38.345,38.345,38.345h435.31c21.177,0,38.345-17.167,38.345-38.345V126.62 C512,105.442,494.833,88.275,473.655,88.275z"/>
  </symbol>

  <symbol id="japan" width="100%" viewBox="0 0 512 512" preserveAspectRatio="xMidYMid meet">
    <path style="fill:#F5F5F5;" d="M473.655,88.275H38.345C17.167,88.275,0,105.442,0,126.62V385.38 c0,21.177,17.167,38.345,38.345,38.345h435.31c21.177,0,38.345-17.167,38.345-38.345V126.62 C512,105.442,494.833,88.275,473.655,88.275z"/>
    <circle style="fill:#FF4B55;" cx="256" cy="255.999" r="97.1"/>
  </symbol>

  <symbol id="china" width="100%" viewBox="0 0 512 512" preserveAspectRatio="xMidYMid meet">
    <path style="fill:#FF4B55;" d="M473.655,88.275H38.345C17.167,88.275,0,105.442,0,126.62V385.38 c0,21.177,17.167,38.345,38.345,38.345h435.31c21.177,0,38.345-17.167,38.345-38.345V126.62 C512,105.442,494.833,88.275,473.655,88.275z"/>
    <g>
      <path style="fill:#FFE15A;" d="M85.007,140.731l8.416,25.234l26.6,0.206c3.444,0.026,4.872,4.422,2.101,6.467l-21.398,15.801 l8.023,25.362c1.038,3.284-2.7,5.999-5.502,3.997l-21.64-15.469l-21.64,15.468c-2.802,2.003-6.54-0.714-5.502-3.997l8.023-25.362 l-21.398-15.8c-2.771-2.046-1.343-6.441,2.101-6.467l26.6-0.206l8.416-25.234C79.297,137.464,83.918,137.464,85.007,140.731z"/>
      <path style="fill:#FFE15A;" d="M181.599,146.949l6.035,8.228l9.739-3.046c1.261-0.394,2.298,1.044,1.526,2.115l-5.962,8.281 l5.906,8.321c0.765,1.077-0.282,2.508-1.54,2.105l-9.719-3.111l-6.089,8.189c-0.788,1.06-2.473,0.506-2.478-0.814l-0.045-10.205 l-9.67-3.261c-1.252-0.423-1.246-2.195,0.009-2.609l9.69-3.196l0.114-10.204C179.129,146.425,180.818,145.884,181.599,146.949z"/>
      <path style="fill:#FFE15A;" d="M144.857,122.419l10.144,1.102l4.328-9.241c0.561-1.196,2.322-0.991,2.591,0.302l2.086,9.988 l10.126,1.26c1.311,0.163,1.66,1.901,0.513,2.558l-8.855,5.07l1.931,10.02c0.25,1.298-1.295,2.166-2.274,1.279l-7.559-6.855 l-8.932,4.932c-1.156,0.639-2.461-0.563-1.919-1.768l4.183-9.308l-7.452-6.972C142.805,123.888,143.544,122.277,144.857,122.419z"/>
      <path style="fill:#FFE15A;" d="M160.895,221.313l-6.034,8.23l-9.739-3.046c-1.261-0.394-2.298,1.043-1.526,2.115l5.962,8.281 l-5.906,8.321c-0.765,1.077,0.282,2.508,1.54,2.105l9.718-3.111l6.089,8.189c0.788,1.06,2.473,0.506,2.478-0.814l0.045-10.205 l9.67-3.261c1.252-0.423,1.246-2.195-0.009-2.609l-9.69-3.196l-0.114-10.204C163.363,220.789,161.676,220.247,160.895,221.313z"/>
      <path style="fill:#FFE15A;" d="M197.635,198.261l-10.145,1.102l-4.328-9.241c-0.561-1.196-2.321-0.991-2.591,0.302l-2.087,9.988 l-10.126,1.26c-1.311,0.163-1.66,1.901-0.513,2.558l8.855,5.07l-1.931,10.02c-0.25,1.298,1.295,2.166,2.274,1.279l7.559-6.855 l8.932,4.932c1.156,0.639,2.461-0.563,1.919-1.768l-4.183-9.308l7.452-6.972C199.689,199.73,198.95,198.119,197.635,198.261z"/>
    </g>
  </symbol>

  <symbol id="taiwan" width="100%" viewBox="0 0 512 512" preserveAspectRatio="xMidYMid meet">
    <path style="fill:#FF4B55;" d="M473.655,423.724H38.345C17.167,423.724,0,406.557,0,385.38V126.622 c0-21.177,17.167-38.345,38.345-38.345h435.31c21.177,0,38.345,17.167,38.345,38.345V385.38 C512,406.557,494.833,423.724,473.655,423.724z"/>
    <path style="fill:#41479B;" d="M8.828,256h238.345c4.875,0,8.828-3.951,8.828-8.828V97.104c0-4.875-3.953-8.828-8.828-8.828H38.345 C17.167,88.277,0,105.444,0,126.622v120.552C0,252.049,3.953,256,8.828,256z"/>
    <g>
      <path style="fill:#F5F5F5;" d="M96.403,172.139c0-8.722,3.534-16.618,9.248-22.335l-26.474-7.573 c-1.537-0.439-2.638,1.469-1.49,2.58l19.811,19.155l-26.734,6.684c-1.55,0.387-1.55,2.591,0,2.979l26.734,6.684l-19.811,19.155 c-1.149,1.111-0.047,3.019,1.49,2.58l26.474-7.573C99.937,188.757,96.403,180.861,96.403,172.139z"/>
      <path style="fill:#F5F5F5;" d="M105.665,149.79c5.717-5.714,13.613-9.248,22.335-9.248s16.618,3.534,22.335,9.248l7.573-26.474 c0.439-1.537-1.469-2.638-2.58-1.49l-19.155,19.81l-6.684-26.734c-0.387-1.55-2.591-1.55-2.979,0l-6.684,26.734l-19.155-19.81 c-1.111-1.149-3.02-0.047-2.58,1.49L105.665,149.79z"/>
      <path style="fill:#F5F5F5;" d="M150.335,194.488c-5.717,5.714-13.613,9.248-22.335,9.248s-16.618-3.534-22.335-9.248l-7.573,26.475 c-0.439,1.537,1.469,2.638,2.58,1.49l19.155-19.81l6.684,26.734c0.387,1.55,2.591,1.55,2.979,0l6.684-26.734l19.155,19.81 c1.111,1.149,3.019,0.047,2.58-1.49L150.335,194.488z"/>
      <path style="fill:#F5F5F5;" d="M185.236,170.648l-26.734-6.684l19.81-19.155c1.149-1.111,0.047-3.019-1.49-2.58l-26.474,7.573 c5.714,5.718,9.248,13.613,9.248,22.335s-3.534,16.618-9.248,22.335l26.474,7.573c1.537,0.439,2.638-1.469,1.49-2.58l-19.81-19.155 l26.734-6.684C186.787,173.241,186.787,171.038,185.236,170.648z"/>
      <circle style="fill:#F5F5F5;" cx="128" cy="172.141" r="25.16"/>
    </g>
  </symbol>

  <symbol id="south-korea" width="100%" viewBox="0 0 512 512" preserveAspectRatio="xMidYMid meet">
    <path style="fill:#F5F5F5;" d="M473.655,88.275H38.345C17.167,88.275,0,105.442,0,126.62V385.38 c0,21.177,17.167,38.345,38.345,38.345h435.31c21.177,0,38.345-17.167,38.345-38.345V126.62 C512,105.442,494.833,88.275,473.655,88.275z"/>
    <path style="fill:#FF4B55;" d="M305.009,182.531c-40.563-27.042-95.35-15.986-122.374,24.506 c-13.555,20.211-8.045,47.674,12.235,61.195c20.265,13.521,47.64,8.03,61.161-12.252c13.521-20.281,40.914-25.704,61.178-12.254 c20.298,13.521,25.757,40.984,12.217,61.195C356.468,264.362,345.537,209.574,305.009,182.531"/>
    <path style="fill:#41479B;" d="M182.634,207.038c-13.555,20.211-8.045,47.674,12.235,61.195c20.265,13.521,47.64,8.03,61.161-12.252 c13.521-20.281,40.914-25.704,61.178-12.254c20.298,13.521,25.757,40.984,12.217,61.195 c-27.006,40.632-81.775,51.549-122.338,24.507C166.561,302.39,155.593,247.602,182.634,207.038"/>
    <g>
      <path style="fill:#464655;" d="M349.92,149.189l16.035,24.102c1.347,2.025,0.802,4.759-1.219,6.112l-4.066,2.723 c-2.029,1.358-4.775,0.812-6.129-1.22l-16.055-24.096c-1.351-2.027-0.803-4.766,1.223-6.119l4.086-2.728 C345.825,146.608,348.568,147.158,349.92,149.189z"/>
      <path style="fill:#464655;" d="M374.66,186.35l16.087,24.087c1.358,2.034,0.804,4.786-1.237,6.134l-4.084,2.699 c-2.026,1.34-4.754,0.789-6.103-1.23l-16.078-24.062c-1.354-2.026-0.81-4.767,1.217-6.122l4.075-2.724 C370.563,183.777,373.305,184.322,374.66,186.35z"/>
      <path style="fill:#464655;" d="M367.089,137.731l40.829,61.273c1.352,2.028,0.803,4.768-1.225,6.12l-4.102,2.734 c-2.028,1.352-4.769,0.804-6.121-1.224l-40.843-61.269c-1.353-2.029-0.803-4.771,1.227-6.123l4.115-2.739 C362.998,135.156,365.737,135.703,367.089,137.731z"/>
      <path style="fill:#464655;" d="M384.211,126.291l16.07,24.149c1.354,2.034,0.798,4.78-1.241,6.127l-4.087,2.7 c-2.028,1.34-4.757,0.789-6.105-1.234l-16.082-24.117c-1.353-2.028-0.804-4.769,1.224-6.122l4.099-2.732 C380.117,123.71,382.859,124.259,384.211,126.291z"/>
      <path style="fill:#464655;" d="M408.967,163.531l16.045,24.099c1.35,2.026,0.803,4.762-1.22,6.115l-4.075,2.724 c-2.029,1.356-4.775,0.809-6.127-1.223l-16.045-24.099c-1.349-2.026-0.803-4.762,1.22-6.115l4.075-2.724 C404.87,160.951,407.614,161.497,408.967,163.531z"/>
      <path style="fill:#464655;" d="M132.721,293.982l40.824,61.207c1.352,2.027,0.806,4.767-1.222,6.12l-4.088,2.73 c-2.028,1.354-4.769,0.807-6.123-1.222l-40.824-61.207c-1.353-2.027-0.806-4.767,1.222-6.12l4.089-2.73 C128.626,291.406,131.368,291.953,132.721,293.982z"/>
      <path style="fill:#464655;" d="M115.582,305.43l16.028,24.041c1.351,2.026,0.806,4.761-1.217,6.116l-4.066,2.722 c-2.027,1.357-4.771,0.812-6.126-1.217l-16.047-24.035c-1.354-2.027-0.808-4.768,1.22-6.122l4.086-2.728 C111.487,302.854,114.229,303.401,115.582,305.43z"/>
      <path style="fill:#464655;" d="M140.351,342.604l16.046,24.102c1.35,2.026,0.803,4.763-1.222,6.115l-4.078,2.727 c-2.029,1.356-4.772,0.809-6.126-1.222l-16.056-24.097c-1.351-2.027-0.804-4.766,1.222-6.118l4.088-2.73 C136.255,340.024,138.998,340.573,140.351,342.604z"/>
      <path style="fill:#464655;" d="M98.442,316.875l40.798,61.21c1.351,2.026,0.804,4.764-1.219,6.118l-4.077,2.726 c-2.028,1.356-4.771,0.809-6.125-1.22l-40.822-61.202c-1.353-2.028-0.804-4.769,1.224-6.122l4.102-2.734 C94.349,314.299,97.09,314.847,98.442,316.875z"/>
      <path style="fill:#464655;" d="M121.294,210.441l40.818-61.257c1.353-2.03,4.095-2.578,6.124-1.224l4.087,2.729 c2.027,1.353,2.573,4.093,1.222,6.12l-40.834,61.223c-1.35,2.023-4.081,2.573-6.108,1.231l-4.071-2.695 C120.494,215.22,119.94,212.473,121.294,210.441z"/>
      <path style="fill:#464655;" d="M104.147,199.008l40.825-61.269c1.353-2.03,4.097-2.578,6.126-1.222l4.077,2.726 c2.024,1.353,2.57,4.09,1.22,6.116l-40.814,61.272c-1.353,2.03-4.095,2.579-6.124,1.224l-4.088-2.729 C103.343,203.774,102.796,201.035,104.147,199.008z"/>
      <path style="fill:#464655;" d="M86.99,187.624l40.829-61.33c1.353-2.031,4.098-2.58,6.127-1.224l4.077,2.726 c2.023,1.353,2.57,4.087,1.222,6.114l-40.804,61.339c-1.351,2.03-4.094,2.581-6.123,1.228l-4.1-2.734 C86.189,192.391,85.641,189.652,86.99,187.624z"/>
      <path style="fill:#464655;" d="M338.493,355.188l16.047-24.035c1.355-2.029,4.099-2.574,6.126-1.217l4.066,2.722 c2.023,1.354,2.567,4.09,1.216,6.116l-16.028,24.04c-1.353,2.029-4.095,2.577-6.123,1.223l-4.086-2.728 C337.685,359.956,337.139,357.216,338.493,355.188z"/>
      <path style="fill:#464655;" d="M363.243,318.141l16.073-24.154c1.351-2.03,4.094-2.58,6.123-1.227l4.096,2.73 c2.029,1.353,2.577,4.096,1.223,6.124l-16.107,24.116c-1.351,2.022-4.082,2.571-6.109,1.227l-4.062-2.692 C362.445,322.915,361.891,320.172,363.243,318.141z"/>
      <path style="fill:#464655;" d="M355.626,366.698l16.057-24.098c1.352-2.029,4.093-2.578,6.122-1.225l4.104,2.737 c2.027,1.352,2.575,4.09,1.225,6.119l-16.047,24.1c-1.351,2.029-4.09,2.579-6.12,1.228l-4.115-2.739 C354.824,371.469,354.274,368.727,355.626,366.698z"/>
      <path style="fill:#464655;" d="M380.403,329.463l16.066-24.042c1.354-2.025,4.092-2.571,6.119-1.22l4.102,2.734 c2.03,1.353,2.577,4.096,1.221,6.125l-16.066,24.043c-1.353,2.025-4.092,2.571-6.118,1.22l-4.103-2.734 C379.594,334.235,379.047,331.492,380.403,329.463z"/>
      <path style="fill:#464655;" d="M372.771,378.081l16.075-24.056c1.35-2.019,4.077-2.569,6.103-1.23l4.086,2.7 c2.04,1.348,2.595,4.097,1.239,6.131l-16.063,24.088c-1.352,2.028-4.093,2.575-6.121,1.224l-4.098-2.732 C371.962,382.852,371.415,380.109,372.771,378.081z"/>
      <path style="fill:#464655;" d="M397.554,340.969l16.035-24.085c1.353-2.031,4.098-2.58,6.127-1.223l4.072,2.722 c2.025,1.354,2.57,4.093,1.218,6.119l-16.049,24.053c-1.349,2.024-4.083,2.573-6.11,1.229l-4.06-2.69 C396.754,345.745,396.201,343,397.554,340.969z"/>
    </g>
  </symbol>

</svg>
