<!--https://www.svgrepo.com/collection/game-skills-vectors/1--><svg xmlns="http://www.w3.org/2000/svg"><symbol id="icon-target-archery" width="100%" viewBox="0 0 512 512" preserveAspectRatio="xMidYMid meet"><path d="M226.063 24.22l-9.782 32.624c12.992-2.652 26.423-4.032 40.19-4.032 10.475 0 20.766.82 30.81 2.376l-9.405-30.97h-51.813zm30.406 48.843c-99.627 0-180.19 80.53-180.19 180.156 0 99.624 80.563 180.155 180.19 180.155 99.624 0 180.155-80.53 180.155-180.156 0-99.627-80.53-180.157-180.156-180.157zm0 41.687c76.482 0 138.467 61.985 138.467 138.47 0 76.482-61.985 138.5-138.468 138.5-76.485 0-138.5-62.018-138.5-138.5 0-76.485 62.015-138.47 138.5-138.47zm-.033 38.938c-54.96 0-99.53 44.54-99.53 99.5s44.57 99.5 99.53 99.5 99.5-44.54 99.5-99.5-44.54-99.5-99.5-99.5zm.032 39.687c33.052 0 59.842 26.79 59.842 59.844 0 33.052-26.79 59.843-59.843 59.843-33.055 0-59.845-26.79-59.845-59.844 0-33.055 26.79-59.845 59.844-59.845zm0 30.906c-15.993 0-28.97 12.947-28.97 28.94 0 15.99 12.977 28.968 28.97 28.968 15.99 0 28.936-12.977 28.936-28.97 0-15.99-12.945-28.937-28.937-28.937zM114.905 395l-27.844 92.875h46.876l20.28-62.313c-14.35-8.54-27.56-18.833-39.312-30.562zm277.188 5.688c-11.982 11.026-25.324 20.595-39.72 28.468l19.25 58.72h46.907l-26.436-87.188zm-165.03 50.78v36.407h52.092v-35.53c-7.45.84-15.015 1.28-22.687 1.28-9.99 0-19.81-.74-29.408-2.156z"/></symbol><symbol id="icon-target-arrows" width="100%" viewBox="0 0 512 512" preserveAspectRatio="xMidYMid meet"><path d="M27.48 25.695C37 62.802 51.945 100.233 69.07 137.86c17.496-31.598 41.214-52.96 71.563-70.473C102.823 50.575 65.097 36.27 27.48 25.695zm456.24 0c-37.62 10.575-75.347 24.88-113.156 41.692 30.35 17.514 54.067 38.875 71.563 70.472 17.125-37.627 32.07-75.058 41.592-112.165zm-367.1 81.315c-3.574 3.207-6.978 6.57-10.224 10.117L232.12 242.85l10.257-10.243L116.62 107.01zm277.956 0L28.018 473.11l10.54 10.26L404.8 117.126c-3.245-3.548-6.648-6.91-10.224-10.117zm-138.963 26.81c-24.338 0-47.014 7.245-65.998 19.682l13.494 13.477c15.33-9.19 33.285-14.472 52.503-14.472 19.214 0 37.16 5.28 52.483 14.465l13.492-13.477c-18.975-12.433-41.64-19.676-65.975-19.676zm-.004 45.08c-11.807 0-22.994 2.732-32.967 7.588l14.246 14.23c5.86-2.026 12.152-3.138 18.72-3.138 6.56 0 12.848 1.11 18.702 3.13l14.25-14.228c-9.97-4.853-21.15-7.582-32.953-7.582zm102.27 11.58l-13.556 13.55c8.464 14.877 13.297 32.102 13.297 50.488 0 19.172-5.255 37.087-14.403 52.392l13.496 13.48c12.386-18.958 19.598-41.59 19.598-65.872 0-23.51-6.76-45.467-18.43-64.04zm-204.56 0c-11.677 18.573-18.443 40.527-18.443 64.038 0 24.282 7.217 46.912 19.61 65.87l13.493-13.478c-9.154-15.305-14.416-33.22-14.416-52.392 0-18.386 4.838-35.61 13.307-50.487l-13.55-13.55zm171.315 33.24l-14.457 14.458c1.536 5.174 2.373 10.655 2.373 16.343 0 6.543-1.103 12.813-3.113 18.654l14.25 14.23c4.83-9.952 7.543-21.11 7.543-32.883 0-10.962-2.37-21.38-6.595-30.8zm-138.072.003c-4.227 9.417-6.598 19.836-6.598 30.798 0 11.773 2.715 22.93 7.547 32.882l14.25-14.23c-2.01-5.84-3.117-12.11-3.117-18.65 0-5.69.837-11.17 2.375-16.344l-14.458-14.455zm92.523 45.547l-10.274 10.273 203.83 203.826 10.54-10.26-204.096-203.84zm-39.84 39.84l-14.453 14.452c9.423 4.23 19.85 6.604 30.816 6.604 10.962 0 21.38-2.373 30.798-6.6l-14.453-14.453c-5.174 1.538-10.657 2.375-16.346 2.375-5.695 0-11.183-.838-16.364-2.38zM81.87 341.3l-68.024 68.026h51.588l68.11-68.025H81.872zm295.78 0l68.112 68.026h51.59L429.326 341.3H377.65zm-172.546 1.95l-13.55 13.553c18.58 11.68 40.544 18.45 64.06 18.45 23.51 0 45.464-6.768 64.036-18.444l-13.55-13.552c-14.875 8.47-32.102 13.306-50.487 13.306-18.39 0-35.625-4.84-50.51-13.314zm-34.88 34.883l-68.03 68.025.003 51.52 68.026-68.024v-51.52zm170.75 0v51.52L409 497.68l.002-51.52-68.027-68.025z"/></symbol><symbol id="icon-sword-clash" width="100%" viewBox="0 0 512 512" preserveAspectRatio="xMidYMid meet"><path d="M311.313 25.625l-23 10.656-29.532 123.032 60.814-111.968-8.28-21.72zM59.625 50.03c11.448 76.937 48.43 141.423 100.188 195.75 14.133-9.564 28.405-19.384 42.718-29.405-22.156-27.314-37.85-56.204-43.593-86.28-34.214-26.492-67.613-53.376-99.312-80.064zm390.47.032C419.178 76.1 386.64 102.33 353.31 128.22c-10.333 58.234-58.087 112.074-118.218 158.624-65.433 50.654-146.56 92.934-215.28 121.406l-.002 32.78c93.65-34.132 195.55-81.378 276.875-146.592C375.72 231.06 435.014 151.375 450.095 50.063zm-236.158 9.344l-8.5 27.813 40.688 73.06-6.875-85.31-25.313-15.564zm114.688 87.813C223.39 227.47 112.257 302.862 19.812 355.905V388c65.917-27.914 142.58-68.51 203.844-115.938 49.83-38.574 88.822-81.513 104.97-124.843zm-144.563 2.155c7.35 18.89 19.03 37.68 34 56.063 7.03-4.98 14.056-10.03 21.094-15.094-18.444-13.456-36.863-27.12-55.094-40.97zM352.656 269.72c-9.573 9.472-19.58 18.588-29.906 27.405 54.914 37.294 117.228 69.156 171.906 92.156V358.19c-43.86-24.988-92.103-55.13-142-88.47zm-44.906 39.81c-11.65 9.32-23.696 18.253-36.03 26.845C342.046 381.51 421.05 416.15 494.655 442.75v-33.22c-58.858-24.223-127.1-58.727-186.906-100zm-58.625 52.033l-46.188 78.25 7.813 23.593 27.75-11.344 10.625-90.5zm15.844.812L316.343 467l36.47 10.28-3.533-31.967-84.31-82.938z"/></symbol><symbol id="icon-walking-boot" width="100%" viewBox="0 0 512 512" preserveAspectRatio="xMidYMid meet"><path d="M272.5 18.906c-12.775.17-26.23 2.553-40.344 7.594-30.165 55.31-68.313 120.904-125.72 178.5-21.19 21.26-39.23 44.94-52.28 68.313 1.294 6.312 4.984 11.65 10.72 17.406 10.992 11.032 30.86 21.618 54.593 33.25 46.313 22.695 107.284 50.39 146.374 108.467l195.625.032c-20.198-70.834-100.276-101.12-159.064-83.94-.073.03-.145.066-.22.095-1.61.633-3.27 1.138-4.967 1.563-.024.005-.04.025-.064.03-8.86 2.204-18.82 1.68-29.125-.406-24.79-5.02-52.76-19.695-61.342-45.687-28.615-86.673 16.65-179.742 78.156-223.28 23.064-16.328 49.06-25.848 74.47-24.47.144.008.29.023.436.03-24.19-22.74-53.33-37.95-87.25-37.5zm81.75 56c-19.213.01-39.414 7.59-58.625 21.188-54.644 38.682-96.652 125.024-71.188 202.156 5.127 15.53 27.25 29.162 47.282 33.22 10.015 2.027 19.218 1.518 23.717-.283 2.25-.9 3.173-1.84 3.594-2.562.422-.72.81-1.663.25-4.375-9.08-44.167-2.743-84.61 22.533-114.47 23.586-27.863 62.753-45.462 117.406-50.686-15.014-47.145-37.47-71.226-61.314-80.03-6.407-2.368-13.032-3.706-19.812-4.064-1.272-.067-2.563-.094-3.844-.094zM43.78 294.22c-5.405 12.554-9.136 24.756-10.905 36.186 7.178 27.76 51.898 55.43 91.094 61.344 1.703-5.973 5.832-11.475 10.28-14.25 51.01 28.844 86.18 60.704 102 101h229.594c.697-9.613.44-18.712-.625-27.344l-204.314-.03h-5.125l-2.75-4.345c-35.405-55.575-93.93-82.58-141.78-106.03-23.925-11.724-45.17-22.336-59.625-36.844-2.978-2.99-5.618-6.225-7.844-9.687z"/></symbol><symbol id="icon-walking-foot" width="100%" viewBox="0 0 512 512" preserveAspectRatio="xMidYMid meet"><path d="M173.438 56.625c-24.197.254-51.41 8.524-76.125 23.875C56.04 106.135 22.91 150.185 21.5 204.813c23.035 23.153 37.246 53.802 48.72 86.312 37.776-75.574 103.61-112.37 154.28-109.22-12.233-36.11-9.912-77.263-10.344-115.968-10.255-5.718-22.525-8.79-35.906-9.25-1.585-.054-3.2-.08-4.813-.062zm42.78 144c-36.993 1.83-87.634 28.563-121.218 84.094 25.173 56.788 58.682 115.636 94.688 155.25 30.954-10.902 72.793-30.752 113.093-54.408-19.64-45.728-15.747-92.128 1.595-128.812-9.745.435-18.834-.526-27.313-2.906-2.768-.777-5.445-1.726-8.062-2.78l.375.655c-5.122 2.997-12.668 10.257-18.813 19.03-6.144 8.773-11.073 19.095-12.75 27.688l-18.343-3.563c2.4-12.312 8.46-24.392 15.78-34.844 5.023-7.17 10.564-13.568 16.438-18.56-5.982-4.3-11.545-9.33-16.688-15.032-19.934 9.052-40.194 31.397-43.313 50.156l-18.437-3.063c4.4-26.468 25.81-49.992 49.938-62.155-2.39-3.44-4.697-7.03-6.97-10.75zm185.813 2.78c-.733.002-1.483.004-2.217.032-11.748.45-23.438 4.37-34.625 11.063-44.48 26.61-76.574 99.088-42.72 169.563l7.25 7.25-10.25 6.156c-46.5 27.946-95.11 51.027-130.75 62.53l12.345 17.875c92.26-33.88 212.588-103.56 290.843-165.78-13.427-54.603-34.915-85.3-57.062-99-10.753-6.654-21.793-9.703-32.813-9.69z"/></symbol><symbol id="icon-footprint" width="100%" viewBox="0 0 512 512" preserveAspectRatio="xMidYMid meet"><path d="M246.625 18.375c-11.817-.153-23.918 8.608-29.375 22.438-6.716 17.02-.85 35.28 13.094 40.78 13.943 5.502 30.69-3.822 37.406-20.843 6.716-17.02.85-35.28-13.094-40.78-2.614-1.033-5.304-1.56-8.03-1.595zm74.75 15.938c-10.97.006-22.743 6.024-30.78 16.874-12.25 16.534-11.2 38.06 2.342 48.094 13.544 10.035 34.44 4.754 46.688-11.78 12.25-16.534 11.2-38.06-2.344-48.094-4.654-3.45-10.16-5.097-15.905-5.093zm67.25 37.53c-10.336-.127-21.542 4.263-30.47 12.907-15.87 15.368-18.525 38.344-5.936 51.344 12.587 13 35.66 11.086 51.53-4.28 15.87-15.37 18.526-38.345 5.938-51.345-5.508-5.69-13.024-8.527-21.063-8.626zm-156.438 32.063c-22.51-.28-44.378 6.893-63.5 24C107.65 182.513 48.192 261.012 28.28 386.97 5.023 534.1 186.257 507.523 168.313 428.936c-22.922-100.387 34.13-141.11 108-124.156 32.838 7.54 66.54-4.9 86-40.436 23.402-42.733-7.428-106.817-62.875-139.625-21.61-12.79-44.74-20.534-67.25-20.814zM449.438 134c-10.52.022-21.654 2.82-32.093 8.625-27.837 15.48-40.15 46.51-27.47 69.313 12.682 22.802 45.54 28.73 73.376 13.25 27.837-15.48 40.118-46.51 27.438-69.313-7.926-14.252-23.717-21.91-41.25-21.875z"/></symbol><symbol id="icon-fluffy-wing" width="100%" viewBox="0 0 512 512" preserveAspectRatio="xMidYMid meet"><path d="M160.53 20.906c-22.075.207-39.973 9.138-54.218 23.782C89.507 61.962 78.3 87.6 74.876 115.624c-6.847 56.05 16.55 119.953 82.094 146.625l-7.032 17.313c-64.128-26.096-93.275-84.757-94.782-141-17.36 10.866-27.608 27.05-32.343 46.437-5.728 23.448-2.727 51.54 7.906 77.844 21.264 52.61 71.37 96.856 138.436 87.594l2.563 18.53c-48.795 6.74-90.183-11.576-119.907-41.03-8.152 16.216-7.504 32.264-.657 48.312 8.472 19.854 27.498 39.252 52.875 53.594 47.085 26.61 114.8 35.554 173.19 5.094-5.43-20.99-2.652-45.074 11.342-69.313 22.71-39.332 60.78-49.83 88.375-38.688 13.798 5.572 25.08 16.555 29.875 31.157 4.796 14.6 2.836 32.303-7.375 50.312-11.8 20.81-34.144 27.877-51.25 22.22-8.552-2.83-16.22-9.437-18.875-18.876-2.653-9.44-.142-20.366 7.063-31.313l15.594 10.282c-5.238 7.955-5.5 13.08-4.69 15.967.813 2.888 2.84 4.895 6.75 6.188 7.822 2.587 21.483-.152 29.158-13.688 8.188-14.44 8.82-26.183 5.843-35.25-2.976-9.066-9.846-15.954-19.092-19.687-18.493-7.467-46.14-2.273-65.188 30.72-14.024 24.29-14.373 45.376-6.72 63.436l2.814 4.375c-.197.13-.397.25-.594.376.256.497.513 1.008.78 1.5 1.945 3.565 4.218 7.007 6.814 10.28.1.13.21.25.312.377.395.49.81.984 1.22 1.468 11.508 13.657 28.358 24.378 47.312 30.283 24.26 7.557 51.596 7.146 74.843-3.75 23.248-10.897 42.935-31.972 52.69-68.375 3.323-12.406 5.08-23.776 5.5-34.313.01-.418.023-.832.03-1.25.087-5.1-.088-10.246-.563-15.406-.037-.407-.084-.814-.125-1.22-.032-.27-.06-.544-.093-.813-3.295-25.79-15.823-46.16-34.345-64.437-29.635-29.24-75.698-51.638-122.75-74.125-47.052-22.487-95.112-45.1-128.875-77.656-31.683-30.553-49.926-71.185-40.313-124.814-.72-.01-1.444-.006-2.156 0z"/></symbol><symbol id="icon-curly-wing" width="100%" viewBox="0 0 512 512" preserveAspectRatio="xMidYMid meet"><path d="M28.375 21.72c6.463 186.873 211.64 185.96 332.47 279.624-78.192-33.86-206.354-26.42-299.126-86.594 43.276 140.637 197.64 94.335 311 132.563-67.51-6.592-156.55 31.527-240.72 1.375 74.328 117.156 170.745 38.902 264.156 39.593-47.114 12.005-95.76 64.52-160.812 59.595 79.27 76.296 120.778 2.205 177.562-26.188-.07.084-.15.166-.22.25 2.22-1.165 4.625-2.058 7.19-2.625 1.936-.427 3.872-.658 5.78-.687 13.36-.206 25.476 9.006 28.47 22.563 1.32 5.986.66 11.957-1.532 17.218-.083-.604-.18-1.206-.313-1.812-2.682-12.156-14.718-19.84-26.874-17.156-12.156 2.683-19.84 14.72-17.156 26.875.374 1.692.945 3.277 1.656 4.78-.185-.126-.38-.244-.562-.374.558.9 1.158 1.77 1.78 2.624 1.213 1.946 2.702 3.687 4.407 5.156 7.127 7.04 16.797 11.55 27.595 12.03 23.13 1.032 42.72-16.9 43.75-40.03.837-18.794-10.812-35.25-27.625-41.313-.01-.003-.022.004-.03 0-9.58-5.346-17.946-11.836-25-19.062 16.04 7.166 35.522 3.674 48.03-10 15.627-17.084 14.46-43.592-2.625-59.22-9.736-8.904-22.52-12.34-34.625-10.5-3.198.18-6.39 1.124-9.28 2.97-8.988 5.736-11.612 17.67-5.876 26.656 5.736 8.988 17.67 11.612 26.656 5.876 4.744-3.028 7.687-7.768 8.594-12.906 2.496 11.418-2.164 23.686-12.594 30.344-13.374 8.536-31.15 4.623-39.688-8.75-2.726-4.272-4.158-8.993-4.437-13.72-.002-.03-.03-.062-.03-.093-.348-2.14-.608-4.283-.75-6.405-9.925-146.86-254.66-165.998-379.22-312.656z"/></symbol><symbol id="icon-fluffy-swirl" width="100%" viewBox="0 0 512 512" preserveAspectRatio="xMidYMid meet"><path d="M306.72 22.688c-87.212.763-181.58 53.14-238.19 140.406-.944 1.46-1.677 3.068-2.593 4.53.455-.397.86-.917 1.313-1.31-40.253 56.984-35.183 136.503 15.813 187.5 54.553 54.552 141.745 56.65 199.093 6.78-4.676 6.576-9.916 13.137-15.812 19.03-57 57-149.53 57-206.53 0-17.814-17.81-30.103-38.73-36.783-61.312 2.928 65.605 34.97 122.74 93.907 151.97 103.593 51.374 250.2-2.8 326.875-121C510.904 245.856 502.47 127.374 429.938 65c-10.36-8.91-22.206-16.483-35.156-22.906-25.897-12.844-54.454-19.11-83.905-19.407-1.38-.013-2.772-.012-4.156 0zm1.06 62.406c47.14-.705 82.63 23.414 90.376 58.906v.03c1.417 6.492 1.806 13.565 1.344 21.032-3.682 59.742-68.786 126.655-145.438 149.563-.945.282-1.872.422-2.812.688l.938-.47c-37.843 12.718-74.086-.708-84.438-33.624-7.03-22.36-.468-48.544 15.25-70.408-1.695 7.2-.05 13.91 5.344 18.375 10.643 8.816 31.83 5.575 47.312-7.25 15.483-12.824 19.394-30.37 8.75-39.187-6.294-5.214-16.287-6.21-26.594-3.5.178-.103.353-.21.532-.313-.755.257-1.52.54-2.28.813-.344.123-.69.217-1.033.344-2.682.876-5.37 1.984-8 3.344-.656.307-1.315.61-1.968.937-42.374 21.24-83.226 68.335-71.656 105.125 3.616 11.497 10.213 20.614 19.094 27.094-30.253-10.44-48.35-34.526-46.563-68.53 3.682-70.837 83.193-133.31 159.844-156.22 14.673-4.385 28.802-6.553 42-6.75z"/></symbol><symbol id="icon-fluffy-trefoil" width="100%" viewBox="0 0 512 512" preserveAspectRatio="xMidYMid meet"><path d="M347.992 22.832c-51.712.07-101.096 34.503-109.127 86.984-6.792 44.385 21.9 91.457 68.047 97.996 33.752 4.784 69.154-16.666 73.35-50.78 2.95-23.992-12.95-49.414-37.766-52.053-5.27-.562-10.605.153-15.478 1.91-7.48 1.888-13.638 7.08-16.848 13.93-1.555 2.91-2.556 6.132-2.83 9.608-.395 5 1.114 10.15 3.95 14.144 4.44 7.53 12.626 12.586 22 12.586 7.837 0 14.846-3.534 19.528-9.094-1.186 6.693-5.074 12.374-9.923 16.1-5.798 4.454-12.964 6.677-20.323 6.29-21.858-1.142-35.413-21.852-33.86-41.5 2.225-28.175 29.754-45.323 55.76-42.558 36.215 3.852 58.474 39.28 54.337 72.918-5.608 45.582-51.27 73.13-94.52 67-35.455-5.024-62.33-28.824-75.702-59.06-25.502-12.462-54.185-18.076-82.324-15.568-73.17 6.52-135.548 70.878-128.2 146.78 5.672 58.588 56.423 108.3 115.655 101.75 44.613-4.93 82.65-44.843 77.028-91.126-4.112-33.853-33.983-62.497-68.006-57.717-23.93 3.362-44.37 25.31-40.498 49.973 2.195 13.982 13.266 26.085 26.428 27.617 1.503.276 3.05.426 4.633.426 14.097 0 25.523-11.428 25.523-25.525 0-10.782-6.687-19.994-16.14-23.734 6.22-.15 12.117 2.062 16.607 5.505 5.8 4.448 9.8 10.797 11.332 18.004 4.548 21.41-11.938 39.867-31.315 43.456-27.79 5.148-51.47-17.014-55.527-42.854-5.648-35.982 22.8-66.658 56.358-71.373 45.47-6.39 83.886 30.595 89.154 73.966 1.82 14.983.02 29.355-4.59 42.527 2.383 27.298 11.775 53.85 27.447 76.166 42.22 60.117 129.123 81.955 191.172 37.628 47.897-34.216 65.572-103.043 30.295-151.074-26.57-36.177-80.135-49.16-117.4-21.143-27.258 20.495-37.133 60.7-15.988 87.78 14.873 19.044 44.09 25.772 63.51 10.083 12.984-10.49 17.54-30.37 6.88-42.858-2.156-2.525-4.954-4.495-7.997-5.785-1.582-.81-3.27-1.47-5.055-1.95-13.617-3.648-27.613 4.433-31.26 18.05-.784 2.92-1.024 5.86-.79 8.71-3.532-5.438-4.66-11.908-3.897-17.728.952-7.248 4.448-13.887 9.924-18.818 16.265-14.65 40.494-9.6 53.287 5.39 18.35 21.496 10.997 53.09-9.35 69.526-28.333 22.888-69.12 13.59-89.978-13.12-28.26-36.19-15.44-87.96 19.482-114.214 17.342-13.038 37.328-18.982 57.246-18.992 12.108-.007 24.188 2.19 35.635 6.306 19.393-21.698 32.76-48.573 37.747-77.1 12.655-72.385-33.343-149.295-108.54-161.83-6.347-1.058-12.734-1.567-19.085-1.558z"/></symbol><symbol id="icon-portal" width="100%" viewBox="0 0 512 512" preserveAspectRatio="xMidYMid meet"><path d="M298.736 21.016c-99.298 0-195.928 104.647-215.83 233.736-7.074 45.887-3.493 88.68 8.512 124.787-4.082-6.407-7.92-13.09-11.467-20.034-16.516-32.335-24.627-65.378-25-96.272-11.74 36.254-8.083 82.47 14.482 126.643 27.7 54.227 81.563 91.94 139.87 97.502 5.658.725 11.447 1.108 17.364 1.108 99.298 0 195.93-104.647 215.83-233.736 9.28-60.196.23-115.072-22.133-156.506 21.625 21.867 36.56 45.786 44.617 69.496.623-30.408-14.064-65.766-44.21-95.806-33.718-33.598-77.227-50.91-114.995-50.723-2.328-.118-4.67-.197-7.04-.197zm-5.6 36.357c40.223 0 73.65 20.342 95.702 53.533 15.915 42.888 12.51 108.315.98 147.858-16.02 54.944-40.598 96.035-79.77 126.107-41.79 32.084-98.447 24.39-115.874-5.798-1.365-2.363-2.487-4.832-3.38-7.385 11.724 14.06 38.188 14.944 61.817 1.3 25.48-14.71 38.003-40.727 27.968-58.108-10.036-17.384-38.826-19.548-64.307-4.837-9.83 5.676-17.72 13.037-23.14 20.934.507-1.295 1.043-2.59 1.626-3.88-18.687 24.49-24.562 52.126-12.848 72.417 38.702 45.923 98.07 25.503 140.746-6.426 37.95-28.392 72.32-73.55 89.356-131.988 1.265-4.34 2.416-8.677 3.467-13.008-.286 2.218-.59 4.442-.934 6.678-16.807 109.02-98.412 197.396-182.272 197.396-35.644 0-65.954-15.975-87.74-42.71-26.492-48.396-15.988-142.083 4.675-185.15 26.745-55.742 66.133-122.77 134.324-116.804 46.03 4.027 63.098 58.637 39.128 116.22-8.61 20.685-21.192 39.314-36.21 54.313 24.91-16.6 46.72-42.13 59.572-73 23.97-57.583 6.94-113.422-39.13-116.805-85.737-6.296-137.638 58.55-177.542 128.485-9.21 19.9-16.182 40.35-20.977 60.707.494-7.435 1.312-14.99 2.493-22.652C127.67 145.75 209.275 57.373 293.135 57.373z"/></symbol><symbol id="icon-glass-heart" width="100%" viewBox="0 0 512 512" preserveAspectRatio="xMidYMid meet"><path d="M371.28 18.906c-40.78.092-82.526 21.026-110.624 65.813-35.57-51.667-93.288-71.73-143.5-61.47-54.427 11.12-99.783 58.946-97.47 134.688 2.17 70.978 43.028 120.858 91.25 168.53 48.225 47.674 104.27 94.2 141.97 159.5L261 500l8.094-14.03c37.55-65.042 95.404-109.375 144.625-156.064 49.22-46.69 90.167-97.202 87.905-172.53C499.49 86.238 455.06 36.64 401.875 22.81c-9.972-2.593-20.252-3.93-30.594-3.906zm-.06 18.532c8.754.06 17.462 1.233 25.936 3.437 45.197 11.753 83.9 53.345 85.813 117.063 2.054 68.423-33.94 112.727-82.095 158.406-44.992 42.678-100.275 85.296-139.844 147-39.266-61.85-92.684-106.41-136.936-150.156-47.363-46.823-83.76-91.68-85.72-155.813C36.29 89.075 74.47 51.05 120.907 41.562c46.437-9.487 101.338 10.72 131.938 65.844l8.5 15.375 8-15.655C294.42 57.898 333.28 37.17 371.22 37.437zM358.81 58.343c-1.67-.023-3.264.033-4.78.156-6.066.49-10.737 2.085-13.782 4.156-3.045 2.07-4.678 4.384-5.5 8-1.644 7.233 2.136 19.413 12.188 32.03 10.05 12.62 25.672 25.346 43.937 34.44 18.265 9.092 35.618 12.667 47.75 11.686 6.066-.49 10.705-2.085 13.75-4.156 3.045-2.07 4.71-4.384 5.53-8 1.645-7.232-2.166-19.38-12.217-32-10.052-12.62-25.642-25.345-43.907-34.437-15.98-7.957-31.27-11.718-42.967-11.876zm-210 .03c-1.315-.017-2.565.03-3.75.126-4.736.38-8.26 1.594-10.437 3.063-2.176 1.468-3.208 2.934-3.78 5.437-1.148 5.006 1.59 14.41 9.593 24.375 8 9.964 20.55 20.132 35.218 27.375 14.667 7.243 28.56 10.04 38.03 9.28 4.738-.378 8.263-1.624 10.44-3.093 2.175-1.468 3.207-2.934 3.78-5.437 1.147-5.006-1.592-14.41-9.594-24.375-8-9.964-20.55-20.1-35.218-27.344-12.834-6.336-25.076-9.28-34.28-9.405zm114.313 130c-54.47 0-103.808 4.458-138.938 11.5-17.564 3.523-31.616 7.76-40.5 11.97-4.44 2.105-7.545 4.263-9.062 5.75-.73.715-1.024 1.135-1.156 1.344.13.215.424.658 1.155 1.375 1.517 1.486 4.62 3.613 9.063 5.718 8.883 4.212 22.935 8.448 40.5 11.97 35.13 7.043 84.466 11.53 138.937 11.53 54.47 0 103.808-4.487 138.938-11.53 17.564-3.522 31.616-7.758 40.5-11.97 4.44-2.104 7.545-4.23 9.062-5.718.73-.716 1.024-1.16 1.156-1.375-.13-.208-.425-.628-1.155-1.343-1.517-1.487-4.62-3.645-9.063-5.75-8.883-4.21-22.935-8.447-40.5-11.97-35.13-7.042-84.466-11.5-138.937-11.5zM452.78 218.94c.144.225.095.203.095 0 0-.204.048-.232-.094 0zm-379.31 0c-.143-.232-.095-.204-.095 0 0 .203-.05.225.094 0zm364.592 29c-9.2 3.16-20.002 5.93-32.343 8.406-36.928 7.403-87.112 11.875-142.595 11.875-55.483 0-105.7-4.473-142.625-11.876-11.487-2.303-21.663-4.86-30.438-7.75 43.797 57.35 119.452 106.2 170.688 184.937 28.976-43.9 66.72-77.32 101.78-108.374 29.198-25.858 56.307-50.194 75.533-77.22z"/></symbol><symbol id="icon-heart-drop" width="100%" viewBox="0 0 512 512" preserveAspectRatio="xMidYMid meet"><path d="M145.25 56.72c-61.374.112-120.404 46.204-122.844 121.093-4.38 134.45 178.216 168.506 234.72 302.718 53.49-134.2 231.247-176.35 235.437-302.717 4.18-126.053-147.904-156.787-221.438-70.657-7.116 15.426-7.685 30.843-5.406 39.344 21.644 80.778 64.56 103.038 64.56 167.375 0 36.398-35.61 62.72-73.092 62.72-36.658 0-74.563-28.165-74.563-66.5 0-67.058 43.713-80.063 66.188-163.94 2.656-9.91-1.38-32.71-14.563-50.968-.03-.032-.063-.06-.094-.093-25.38-26.418-57.45-38.433-88.906-38.375zm128.344 195.06c8.576 8.258 13.937 19.843 13.937 32.69 0 25.066-20.337 45.374-45.405 45.374-4.06 0-8.005-.533-11.75-1.53 5.736-4.15 9.594-11.757 9.594-20.44 0-13.13-8.817-23.75-19.657-23.75s-19.625 10.62-19.625 23.75c0 4.104.864 7.976 2.375 11.345 6.368 23.624 27.828 40.905 53.53 40.905 30.76 0 55.5-24.74 55.5-55.5 0-24.82-16.12-45.704-38.5-52.844z"/></symbol><symbol id="icon-layered-armor" width="100%" viewBox="0 0 512 512" preserveAspectRatio="xMidYMid meet"><path d="M129.656 21.188L37.936 79.78c3.54 26.805 8.915 53.547 16.127 80.126L240.72 39.594l-19.282-12.5c-31.28-.885-62.204-2.842-91.782-5.907zm253.47.625c-40.51 3.975-83.496 5.938-126.47 5.843l204.625 132.72c7.108-25.89 12.487-51.92 16.095-78.032l-94.25-60.53zM257.937 50.75L59.468 178.656c8.025 26.32 17.865 52.456 29.532 78.313l243.25-158-74.313-48.22zm91.468 59.344l-74.562 48.437 151.28 98.782c11.714-25.803 21.592-51.91 29.688-78.187l-106.406-69.03zm-91.687 59.562L97 274.062c12.202 25.17 26.14 50.064 41.844 74.563l196.094-128.53-77.22-50.44zM352 231.22l-77.53 50.843 101.405 67.187c15.822-24.6 29.895-49.584 42.22-74.875L352 231.22zm-94.53 61.968l-108.345 71.03c13.564 20.062 28.326 39.847 44.28 59.313l132.032-85.28-67.968-45.063zm84.967 56.312L274.5 393.406l47.03 30.375c15.845-19.342 30.513-38.993 44.033-58.936L342.438 349.5zm-84.968 54.875L205.5 437.97c16.233 18.933 33.614 37.54 52.156 55.78 18.385-18.152 35.637-36.678 51.78-55.53l-52.092-33.626.125-.22z"/></symbol><symbol id="icon-bordered-shield" width="100%" viewBox="0 0 512 512" preserveAspectRatio="xMidYMid meet"><path d="M50.807 26.285c-1.105 42.86 2.978 85.91 11.98 128.55l50.606-11.388c-2.658-19.543-4.11-39.265-3.6-59.002l.236-9.103h49.402V26.285H50.807zm306.607 0v49.057h45.904l.23 9.107c.498 19.563-.492 39.338-3.058 59l50.086 11.34c9.048-42.643 13.05-85.63 11.96-128.505H357.415zm-131.65 1.354v45.786h65.056V27.64h-65.056zM178.12 43.335V94.03H128.48c.084 18.322 1.696 36.784 4.56 55.216l1.34 8.633-50.216 11.298c3.15 13.61 6.88 27.174 11.172 40.677l41.1-6.197 50.804 107.07-31.744 28.473c7.095 11.418 14.626 22.74 22.615 33.952l42.496-31.466 5.634 6.912c9.656 11.84 19.914 23.57 30.766 34.93 10.873-11.26 21.116-22.59 30.664-34.335l5.625-6.922 41.82 30.886c8.05-11.315 15.64-22.748 22.788-34.277l-31.383-28.15 50.803-107.072 40.627 6.127c4.308-13.503 8.054-27.07 11.22-40.68l-49.636-11.24 1.347-8.627c2.855-18.264 4.06-36.774 4.023-55.207h-46.183V43.337h-29.22v48.78h-102.43v-48.78h-28.958zm-13.915 79.252h185.41l.22 9.12c1.746 73.04-27.91 137.976-86.116 199.905l-6.798 7.23-6.81-7.216c-58.558-62.066-87.895-126.956-86.128-199.92l.22-9.12zm18.48 18.69c.818 61.19 25.098 115.615 74.213 170.062 48.85-54.348 73.37-108.852 74.23-170.063H182.685zm-57.18 82.93l-54.216 8.173 52.335 110.306 40.752-36.553-38.873-81.926zm262.76 0l-38.874 81.925 40.753 36.553L442.48 232.38l-54.216-8.173zM217.52 367.227l-42.704 31.62c23.914 32.71 51.31 64.504 82.15 95.236 30.733-30.743 57.7-62.44 81.548-95.19l-42.15-31.128c-10.264 12.222-20.992 24.175-32.792 35.978l-6.597 6.598-6.608-6.586c-11.93-11.89-22.64-24.246-32.846-36.53z"/></symbol><symbol id="icon-eagle-emblem" width="100%" viewBox="0 0 512 512" preserveAspectRatio="xMidYMid meet"><path d="M35.31 22.3C27.498 42.766 22.138 64.643 20 87.378l103.705 27.79-4.838 18.052-99.873-26.763c-.012.954-.035 1.905-.035 2.86 0 14.055 1.196 27.83 3.48 41.23h94.146v18.687H26.393c3.368 13.324 7.83 26.207 13.29 38.547l79.184-21.216 4.838 18.05-75.64 20.27c5.994 11.096 12.817 21.67 20.396 31.636l61.933-35.756 9.343 16.183-59.22 34.192c7.782 8.728 16.18 16.885 25.132 24.4l44.73-44.726 13.214 13.215-43.055 43.052c8.963 6.406 18.374 12.215 28.186 17.357l28.734-49.772 16.186 9.346-27.987 48.472c12.545 5.367 25.63 9.697 39.156 12.87.99 3.566 2.08 7.103 3.25 10.593-12.36 9.993-24.163 20.49-35.12 31.728-4.458-2.16-9.46-3.373-14.75-3.373-18.707 0-33.874 15.164-33.874 33.873 0 1.715.13 3.402.377 5.05 2.02-11.514 12.06-20.265 24.153-20.265 3.103 0 6.068.582 8.8 1.633-10.103 12.102-19.193 25.08-26.906 39.23 13.897-7.544 27.684-15.755 41.15-24.764.96 2.63 1.485 5.468 1.485 8.43 0 12.122-8.796 22.184-20.352 24.168 1.685.258 3.412.393 5.168.393 18.71 0 33.873-15.168 33.873-33.875 0-4.17-.757-8.16-2.134-11.848 10.033-7.467 19.823-15.43 29.26-23.984 2.978 5.705 6.203 11.034 9.65 15.818l-43.53 87.17c48.267 22.47 115.7 22.76 157.872 0l-42.13-84.36c3.722-4.81 7.21-10.25 10.426-16.14 8.577 7.617 17.428 14.77 26.483 21.508-1.375 3.685-2.13 7.67-2.13 11.836 0 18.707 15.165 33.873 33.874 33.873 1.758 0 3.486-.132 5.172-.39-11.56-1.983-20.355-12.045-20.355-24.168 0-2.964.525-5.805 1.49-8.435 13.464 9.006 27.247 17.223 41.143 24.767-7.71-14.148-16.78-27.136-26.877-39.238 2.726-1.045 5.682-1.623 8.775-1.623 12.09 0 22.13 8.75 24.15 20.262.246-1.647.377-3.332.377-5.047 0-18.71-15.166-33.873-33.875-33.873-5.275 0-10.268 1.205-14.72 3.355-10.007-10.27-20.74-19.908-31.946-29.12 1.938-5.52 3.658-11.18 5.132-16.886 7.91-2.368 15.65-5.14 23.2-8.283l-28.497-49.356 16.186-9.346 29.34 50.816c9.98-5.11 19.555-10.9 28.672-17.308l-44.146-44.147 13.215-13.216 45.926 45.922c9.145-7.557 17.72-15.785 25.666-24.6l-60.95-35.19 9.343-16.182 63.748 36.804c7.76-10.087 14.746-20.807 20.87-32.07l-77.93-20.883 4.837-18.05 81.534 21.847c5.588-12.533 10.157-25.625 13.584-39.178h-92.836v-18.687h96.777c2.282-13.4 3.48-27.174 3.48-41.23 0-1.19-.025-2.376-.044-3.563L397.652 133.22l-4.836-18.054L499.09 86.69c-2.18-22.49-7.52-44.13-15.254-64.39h-.004C457.315 63.81 400.24 96.234 329.068 109.32c12.67 15.603 20.442 35.52 20.442 57.233 0 31.196-15.723 58.718-39.604 75-21.27-12.407-42.907-28.878-45.52-43.814l17.653-3.81-2.235-10.352c15.67-11.335 33.936-9.138 53.433-.01l-18.302-40.414-41.903 9.04-2.846-13.188V139l-80.87 17.453 20.458 30.266c-8.595 19.678-2.717 41.68 5.45 58.56-27.204-15.57-45.592-44.998-45.592-78.73 0-21.713 7.772-41.63 20.44-57.232C118.904 96.234 61.83 63.81 35.312 22.3zm216.45 132.567c5.244-.056 9.98 3.573 11.13 8.9 1.312 6.085-2.557 12.084-8.644 13.397-6.087 1.313-12.085-2.556-13.398-8.643-1.314-6.085 2.556-12.086 8.642-13.4.76-.163 1.52-.245 2.27-.253z"/></symbol><symbol id="icon-holy-grail" width="100%" viewBox="0 0 512 512" preserveAspectRatio="xMidYMid meet"><path d="M54.125 102.188c-15.624 74.885 20.42 123.6 64.125 150.562-33.063-7.81-65.052-19.482-98.25-36.844 25.5 77.488 81.164 95.816 129.906 90.75-26.933 14.252-55.392 25.3-83.937 32.78 70.04 43.512 120.987 16.005 149-22.28-30.186-17.833-52.692-53.794-63.032-98.344-38-34.814-71.414-75.012-97.813-116.625zm402.938 0c-26.397 41.608-59.816 81.786-97.813 116.593-10.338 44.564-32.84 80.54-63.03 98.376 28.01 38.285 78.957 65.792 149 22.28-28.542-7.48-56.978-18.53-83.908-32.78 48.736 5.055 104.38-13.28 129.875-90.75-33.197 17.362-65.187 29.035-98.25 36.844 43.705-26.963 79.75-75.677 64.125-150.563zm-201.47 26.187c-23.56 0-44.93 3.576-61.218 9.844-8.145 3.133-15.045 6.906-20.438 11.81-5.392 4.907-9.5 11.53-9.5 19.157 0 .89.05 1.765.157 2.625 2.62 64.952 32.08 117.553 67.28 133.188l6.94 3.094-1.595 7.406c-8.645 40.282-20.575 63.61-40.94 77.03-11.193 7.378-14.184 13.215-14.374 15.126-.19 1.91.765 4.2 6.844 7.906 12.158 7.41 39.925 13.157 66.844 13.157 26.872 0 53.258-5.944 64.687-13.408 5.716-3.73 6.812-6.22 6.626-8.53-.186-2.312-2.937-7.934-13.094-15.22-19.326-13.862-31.327-36.107-39.843-76.062l-1.595-7.406 6.938-3.094c35.2-15.635 64.662-68.236 67.28-133.188h-.03c.106-.86.156-1.735.156-2.625 0-7.626-4.077-14.25-9.47-19.156-5.393-4.905-12.324-8.677-20.47-11.81-16.288-6.27-37.627-9.845-61.186-9.845zm0 18.688c21.617 0 41.154 3.47 54.47 8.593 6.657 2.562 11.708 5.563 14.593 8.188 2.886 2.625 3.375 4.28 3.375 5.344 0 1.063-.488 2.718-3.374 5.343-2.885 2.626-7.936 5.627-14.594 8.19-13.315 5.122-32.852 8.593-54.468 8.593-21.616 0-41.184-3.47-54.5-8.594-6.658-2.563-11.708-5.564-14.594-8.19-2.886-2.624-3.375-4.28-3.375-5.343 0-1.063.49-2.718 3.375-5.343 2.886-2.625 7.936-5.626 14.594-8.188 13.316-5.123 32.884-8.594 54.5-8.594z"/></symbol><symbol id="icon-sands-of-time" width="100%" viewBox="0 0 512 512" preserveAspectRatio="xMidYMid meet"><path d="M115.063 21.97v9.343c0 101.953 38.158 189.648 96.343 222.093v6.094c-58.186 32.445-96.344 120.14-96.344 222.094v9.344H401.81v-9.344c0-102.552-38.804-190.274-97.53-222.188V253.5c58.722-31.917 97.53-119.64 97.53-222.188V21.97H115.06zM134 40.655h248.875c-2.477 96.445-42.742 175.523-91.938 198.906l-5.343 2.532V270.844l5.344 2.53c49.193 23.383 89.456 102.438 91.937 198.876H134c2.456-95.898 42.125-175.078 90.875-198.938l5.25-2.562v-28.594l-5.25-2.562c-48.748-23.86-88.42-103.04-90.875-198.938zm213.656 86.125c-57.607 27.81-124.526 27.84-177.562 4.095C184.748 181.78 213.91 218.012 248.22 224c-1.54 2.047-2.47 4.585-2.47 7.344 0 6.76 5.488 12.25 12.25 12.25s12.25-5.49 12.25-12.25c0-2.72-.907-5.218-2.406-7.25 35.426-5.88 65.488-44.07 79.812-97.313zM258 258.626c-6.762 0-12.25 5.488-12.25 12.25s5.488 12.25 12.25 12.25 12.25-5.488 12.25-12.25-5.488-12.25-12.25-12.25zm0 39.28c-6.762 0-12.25 5.49-12.25 12.25 0 6.763 5.488 12.25 12.25 12.25s12.25-5.487 12.25-12.25c0-6.76-5.488-12.25-12.25-12.25zm0 39.533c-6.762 0-12.25 5.488-12.25 12.25 0 6.76 5.488 12.25 12.25 12.25s12.25-5.49 12.25-12.25c0-6.762-5.488-12.25-12.25-12.25zm.125 39.906c-23.21.28-46.19 25.77-75.813 75.656h153c-30.523-51.003-53.977-75.936-77.187-75.656z"/></symbol><symbol id="icon-clover" width="100%" viewBox="0 0 512 512" preserveAspectRatio="xMidYMid meet"><path d="M105.186 26.426c-38.314.06-62.13 26.334-31.37 72.994C6.192 97.785-9.36 188.75 62.29 218.39c54.838 22.684 82.008-6.012 142.985 15.008-64.015-7.88-119.143 21.696-153.814 66.6-38.507 49.87-24.104 120.148 40.41 100.332-9.024 67.12 62.385 100.137 103.907 47.166 35.793-45.66 15.51-103.756 41.842-182.885 7.1 61.706-5.617 108.762 11.573 166.478 21.393 71.83 103.075 75.605 118.537 6.34 55.84 51.31 95.82-9.41 75.754-76.643-17.993-60.285-90.76-98.2-167.65-118.703 72.808-3.032 108.846 44.51 167.78 30.084 72.446-17.734 64.365-108.426-10.823-128.922 45.767-54.918-19.446-110.047-87.18-93.117-57.113 14.275-90.85 71.977-101.928 143.33-5.55-65.618-28.823-120.138-81.03-150.316-19.64-11.353-40.05-16.74-57.466-16.714z"/></symbol><symbol id="icon-cash" width="100%" viewBox="0 0 512 512" preserveAspectRatio="xMidYMid meet"><path d="M210.6 44.39l-7-4.39c-13.7-8.4-30.8-13.28-45.5-8.7-15.8 4.92-28.4 17.09-35 35.37l-9.4-4.84c-16.2-8.34-24.68-8.47-31.71-5.31-5.61 2.51-11.46 8.55-18.09 17.37l82.4 63.71c12.9 4.2 31.8 4.1 50.7-.8 19-4.9 37.9-14.5 51.7-27.4l31.1-76.9c-27.4-21.65-52.4-9.11-69.2 11.89zm53.1 76.51c-17 17.2-42.3 28.8-62 34-6.9 1.8-13.8 3.1-20.5 3.8-3.7 6.1-6.8 12.3-9.2 18.5 4.8 24.4 13.8 44.4 27.3 60.8l-14.4 12c-8.3-10-15.7-20.8-21.3-32.8-.9 23.2 4.3 47.2 12.8 72.2l-17.7 6c-15.6-45.6-20.9-92.3 1-136.3-7.4-.6-14.4-2-20.9-4.3l-.3-.1c-4.3 4.1-8.4 8.4-12.3 12.9-31.57 36.6-48.96 85.3-39.86 123.2 4.87 20.3 13.6 39.5 26.16 55.9 18.4-.4 35.8 0 51.6 6 7.5-.8 15.2-1.3 23.2-1.3 28.5 0 54.3 5.3 73.8 14.5 7.6 3.6 14.5 7.9 20 12.8 0-5.3.8-11 2.4-15.2-8.9-8.4-14.5-18.6-14.5-30.2 0-16.1 10.7-29.4 26.2-39 0-4.6.9-9 2.5-13.2-10.1-8.7-16.6-19.5-16.6-32.1 0-7.9 2.6-15.1 7-21.6-4.4-6.4-7-13.6-7-21.5 0-3.9.6-7.5 1.7-11-9.7-8.6-15.8-19.2-15.8-31.4 0-12.1 6-22.6 15.6-31.1-5.9-4.6-12.2-8.5-18.9-11.5zm111.4 2.3c-26 0-49.5 5.5-65.6 13.6-16.2 8.1-23.8 18.1-23.8 26.7 0 8.7 7.6 18.7 23.8 26.8 16.1 8.1 39.6 13.6 65.6 13.6 11.3 0 22-1.1 31.9-2.9v-17c13.9-2.1 25.4-5.9 32.8-10.8v17.6c12.5-3.6 24.5-16.9 24.8-27.3 0-8.6-7.6-18.6-23.8-26.7-16.2-8.1-39.6-13.6-65.7-13.6zm96.5 67.7c-3.3 3.5-7.2 6.8-11.6 9.8l.2 29c12.6-7.5 18.5-16.2 18.5-23.8 0-4.8-2.3-10-7.1-15zm-171.8 15.4c.3 8.6 7.9 18.3 23.8 26.3 16.2 8.2 39.6 13.6 65.7 13.6 16.3 0 31.6-2.2 44.7-5.8l.7-27.2c-17.2 6-37.6 9.3-59.6 9.3-28.5 0-54.4-5.7-74-15.5-.5-.2-.9-.5-1.3-.7zm2 34.8c-1.4 2.7-2 5.4-2 7.9 0 8.7 7.6 18.7 23.8 26.8 16.2 8.1 39.6 13.5 65.7 13.5 13.2 0 25.7-1.3 37-3.8v-24c-11.6 2.2-24 3.3-37 3.3-28.6 0-54.5-5.6-74.1-15.5-4.9-2.4-9.4-5.2-13.4-8.2zm174.9 0c-6.1 4.3-11.4 7.5-17.6 10.2v22.3c13.3-7.7 19.6-16.7 19.6-24.6 0-2.5-.6-5.2-2-7.9zm7.5 36.8c-2 2-4.2 3.9-6.6 5.8v32.4c10.3-7 15.3-14.7 15.3-21.7 0-5.3-2.9-11-8.7-16.5zm-170.1 14c-.1.9-.2 1.7-.2 2.5 0 8.7 7.6 18.6 23.8 26.7 16.2 8.2 39.7 13.6 65.7 13.6 14.9 0 29.1-1.8 41.4-4.8V300c-16.3 5.2-35.2 8-55.5 8-28.6 0-54.5-5.7-74.1-15.5-.4-.2-.7-.4-1.1-.6zm-13.6 21.4c-8.7 6.5-12.8 13.6-12.8 20 0 8.7 7.6 18.6 23.8 26.8 16.2 8.1 39.6 13.5 65.7 13.5 9.5 0 18.7-.7 27.3-2v-18.2h-1.1c-28.6 0-54.5-5.7-74.1-15.6-12.5-6.2-22.9-14.5-28.8-24.5zM463 343.9c-7.9 2.8-16.5 5.1-25.7 6.6v12.1c1.9-.8 3.8-1.6 5.6-2.5 9.8-5 16.4-10.6 20.1-16.2zm9.2 18.2c-3.8 3.8-8.2 7.2-13.1 10.3V401c13.3-7.6 19.6-16.6 19.6-24.5 0-4.6-2.1-9.6-6.5-14.4zm-348.7 2.8c-10.2.1-21.2 1.4-32.6 4.1-22.81 5.3-42.42 15-55.22 25.7-12.8 10.6-17.8 21.4-16.3 29.1 1.5 7.7 9.4 14.8 24.8 18.9 15.35 4 36.82 4.2 59.62-1.1 9.2-2.2 17.8-5 25.7-8.3v-20.7c14.6-6.5 25.5-14.3 30.4-21.9v24.4c12.1-10.4 16.8-20.8 15.4-28.4-1.4-7.7-9.4-14.8-24.8-18.8-7.7-2-16.9-3.1-27-3zm64.6 5.2c2.7 3.9 4.6 8.3 5.6 13.2 1.1 6 .6 11.8-1.2 17.5 9.9 2.6 18.9 6.1 26.7 10.5 4.4 2.4 8.5 5.3 12.1 8.3 9-2.1 16.6-5.1 22-8.7v20.6c16.1-7.6 23.5-16.9 23.5-24.3 0-7.5-7.4-16.8-23.6-24.4-16.1-7.5-39.3-12.6-65.1-12.7zm111.8 5c-.1.4-.1.9-.1 1.4 0 8.7 7.6 18.6 23.8 26.8 16.2 8.1 39.6 13.5 65.7 13.5 13.2 0 25.7-1.4 37-3.8v-26.9c-14.8 4-31.5 6.2-49.1 6.2-28.6 0-54.5-5.7-74.1-15.5-1.1-.6-2.2-1.2-3.2-1.7zm2.8 37.3c-2 3.3-2.9 6.5-2.9 9.6 0 8.7 7.6 18.6 23.8 26.8 16.2 8.1 39.6 13.5 65.7 13.5 13.2 0 25.7-1.4 37-3.8v-26.4c-11.6 2.2-24 3.4-37 3.4-28.6 0-54.5-5.7-74.1-15.6-4.5-2.2-8.7-4.7-12.5-7.5zm173.1 0c-5.8 3.9-10.9 7-16.7 9.5v24.6c13.3-7.6 19.6-16.6 19.6-24.5 0-3.1-.9-6.3-2.9-9.6zm-292.6 5.4c-3.5 4.4-7.6 8.6-12.2 12.4-15.6 13.1-37.6 23.7-63 29.6-9.06 2.1-18.06 3.4-26.7 4.1 3.2 5.3 8.83 10.5 17.07 15.1 13.63 7.7 33.63 12.9 55.83 12.9 10.1 0 19.7-1.1 28.5-3v-20.8c13.8-2.1 25.4-5.9 32.8-10.8v18.4c10-7 14.8-14.9 14.8-22.4 0-8.7-6.5-18-20.2-25.7-7.4-4.1-16.6-7.5-26.9-9.8z"/></symbol><symbol id="icon-gems" width="100%" viewBox="0 0 512 512" preserveAspectRatio="xMidYMid meet"><path d="M303.2 19.338l-161.966 93.51 93.512 161.966 161.967-93.51-4.674-8.093-4.874-8.44-4.127-7.54-.188.07-79.65-137.962zm-20.62 33.486l-50.27 90.14c-19.184-7.687-37.887-17.28-56.165-28.69l106.435-61.45zm19.914 2.664l63.235 109.528c-40.568 2.1-78.993-3.29-115.658-15.536l52.422-93.992zm-251.61 25.68L23.032 167.99l74.302 51.123 27.854-86.822-5.723-3.936-68.578-47.186zm10.118 29.646l32.295 22.22-44.233 14.99 11.938-37.21zm385.836 22.33l-46.143 17.418 9.06 16.557 20.165-7.614 2.992 43.463-39.94 15.077-.878-12.748-18.016 10.4 1.977 28.71 76.457-28.865-5.674-82.402zm-270.55 3.045c31.896 18.617 65.316 32.12 100.267 39.964l-39.52 65.25L176.29 136.19zm-76.604 14.414l-12.467 38.863-33.73-23.207 46.197-15.656zm196.437 29.318c19.028 3.07 38.496 4.478 58.403 4.158l-93.675 54.084 35.273-58.242zM21.187 224.744l1.96 14.336 21.672 158.522 167.026 49.484-1.994-14.59-23.522-12.463L79.99 388.53l59.563-26.098 34.398-54.528 6.943 50.77 16.082-20.33-8.766-64.114-167.024-49.486zm22.435 26.14l121.497 35.997-38.314 60.733-66 28.92-17.182-125.65zm313.064 5.206l-88.914 23.824-1.916 2.395-89.266 111.594 197.365 102.963 118.662-187.66-135.93-53.117zm-13.6 22.988l31.3 55.317-86.09 22.673 2.505-63.978 52.284-14.012zm21.582.193l88.18 34.46-59.778 15.743-28.402-50.202zm-93.035 25.734l-2.232 57.04-54.978 14.48 57.21-71.52zm184.313 27.234l-73.545 116.31 13.94-100.61 59.605-15.7zm-79.185 20.856L362.762 454.11l-67.342-79.594 81.338-21.422zM275.402 379.79l67.532 79.817-124.325-64.86 56.792-14.958z"/></symbol><symbol id="icon-saphir" width="100%" viewBox="0 0 512 512" preserveAspectRatio="xMidYMid meet"><path d="M413.47 20.25l-11.47 4L84.97 134.72 78.437 137l.406 6.875L97.78 478.47l.69 12.124 11.468-4 317.03-110.47 6.5-2.28-.374-6.906-18.938-334.563-.687-12.125zm-31.533 30.375l-43.375 64.75-180.75 63.375-36.78-24.53c74.22 12.515 196.82-52.49 257.124-102.282l3.78-1.313zm16.032 19.688l15.78 279.125-49.313-32.875-4.187-76.47c18.567-45.422 32.45-114.342 37.72-169.78zm-63.44 67.75l9.69 176.187-166.876 58.5-2.78-50.47c48.082 9.04 83.113-8.624 104.342-38.25-27.814-3.42-46.384-30.984-43.094-60.28 3.174-28.257 24.982-51.253 51.72-52.313 1.782-.07 3.615-.035 5.437.094 2.458.176 4.837.56 7.155 1.095-1.355-6.985-3.194-13.86-5.5-20.563l39.906-14zM117.78 174.5l29.657 19.78 10.47 190.814-43.407 64.812-.188-3.656c24.146-101.32 36.74-217.525 3.47-271.75zm172.095 22.625c-13.068-.123-26.546 12.068-28.5 29.47-2.017 17.96 8.33 31.076 21.78 32.03 13.452.954 27.765-11.444 29.783-29.406 2.017-17.963-8.363-31.08-21.813-32.032-.42-.03-.828-.06-1.25-.063zm64.156 134.97l49.283 32.874-254.938 88.81c48.305-26.555 103.147-64.172 135.594-97.124l70.06-24.562z"/></symbol><symbol id="icon-metal-bar" width="100%" viewBox="0 0 512 512" preserveAspectRatio="xMidYMid meet"><path d="M322.248 85.684L61.432 224.717l-41.145 109.94 7.233 3.85 153.673 81.8 308.495-164.215-37.752-99.903-129.688-70.506zm119.035 95.187l25.11 66.45-102.56 54.594L430.39 186.64l10.893-5.77zm-89.576 47.417L284.957 343.9l-41.67 22.182 72.195-118.62 36.225-19.175zM72.38 248.78l28.21 14.933-54.012 54.012L72.38 248.78zm210.827 15.767L211.19 382.87l.26.16-17.208 9.16 5.795-83.618 83.17-44.025zm-165.334 8.312l16.963 8.98-60.445 60.445-16.93-9.012 60.413-60.414zM181.42 306.9l-6.174 89.07-54.1-28.798 60.274-60.272z"/></symbol><symbol id="icon-black-bar" width="100%" viewBox="0 0 512 512" preserveAspectRatio="xMidYMid meet"><path d="M341.28 22.813L254 123.843l-11.094 5.907-113.094-83.125L154.22 177.03l-47.907 25.564-89.72 24.22 36.938 19.624-30.968 82.625-2.843 7.687 7.218 3.844 79.406 42.25-19.47 44.844L144 402.906l32.22 17.156 4.405 2.344 4.375-2.344 47.844-25.468L287.75 497.97l37.78-139.876L467.94 384.75l-60.907-82.875 74.814-39.844 7.25-3.842-2.906-7.688-20.625-54.594 26.218-22.625-35.28-1.405-3.906-10.344-1.25-3.25-3.03-1.655-103.97-56.53-3.063-77.282zM321.595 109l107.97 58.688-237.47 125.718-108.625-57.5L321.593 109zm42.78 44.563l-171.718 90.062-41.562-22.188-25.313 13.407 66.876 35.656 197.28-103.906-25.56-13.03zm76.313 29.406l25.125 66.436L193.656 394.28l5.78-83.624 241.25-127.687zM71.813 250.874l109.032 57.75-6.188 89.438L42.97 327.938l28.843-77.063z"/></symbol><symbol id="icon-ice-cube" width="100%" viewBox="0 0 512 512" preserveAspectRatio="xMidYMid meet"><path d="M238.406 26.844c-9.653.12-18.926 2.69-30.437 7.062l-157.282 57c-20.984 7.65-21.587 11.834-22.344 33.28L20.937 358.22c-1.207 27.514-.654 33.187 23.25 43.56L229.97 483.19c19.34 8.29 31.906 7.655 45.186 3.218l181.938-56.53c21.95-7.295 25.04-9.627 25.875-36.845l7.686-250.155c.662-17.37-5.667-24.695-18.78-29.625L271.062 34.375c-12.977-5.344-23.003-7.653-32.657-7.53zm.813 24.875c23.637-.053 45.564 8.434 87.874 24.874 95.545 37.123 131.71 53.8 69.687 77.937-74.002 28.802-128.175 45.115-172.28 25.814L113.47 131.75c-34.57-15.127-44.69-27.46 17.843-50.094 55.64-20.14 82.742-29.882 107.906-29.937zm44.718 43.75c-38.284.402-55.285 21.205-56.813 38.936-.873 10.132 2.95 19.6 12.406 26.25 9.456 6.65 25.355 10.56 48.97 5.938 35.817-7.01 61.536-15.056 77.5-22.844 7.982-3.894 13.464-7.737 16.5-10.844 3.036-3.107 3.453-4.942 3.438-6-.016-1.057-.44-2.675-3.313-5.406-2.873-2.73-8.03-6.04-15.22-9.156-14.378-6.233-36.757-11.877-65.717-15.72-6.355-.842-12.28-1.213-17.75-1.155zM59.25 134c10.372-.29 29.217 7.2 63.906 22.656 140.925 62.786 140.52 65.876 130.97 200.656-7.783 109.81-8.797 109.85-128.47 59.282-73.15-30.91-86.806-40.853-85.187-88.97l5.468-162.937c.674-20.034 1.557-30.358 13.312-30.687zm381.938 30.906c29.172-.384 29.1 28.075 26.75 105.25-4.118 135.132-9.05 140.184-120.375 173.72-70.42 21.21-81.49 25.614-78.97-12.032l11-164.156c3.217-48.034 7.588-51.508 94.813-83.907 31.323-11.633 52.534-18.686 66.78-18.874zm-20.438 40.688c-.332-.002-.674.015-1 .03-5.22.263-10.226 2.77-14.188 8.407-3.96 5.638-6.81 14.71-5.687 27.907 1.448 17.033-4.507 38.11-15.156 56.938-10.65 18.827-26.502 35.91-47.814 38.813-29.127 3.968-42.41 23.58-43.5 42.062-.545 9.24 2.108 18.03 7.688 24.594s14.088 11.335 27.187 12.03c41.146 2.185 71.336-10.766 91.595-39.155 20.26-28.39 30.396-73.76 25.875-136.595-1.876-26.076-14.708-34.977-25-35.03zm-246.25 8.844c-.644 0-1.218.063-1.72.187-2.003.494-3.685 1.53-5.655 4.813-1.913 3.186-3.688 8.618-4.406 16.343l-.064.657c-1.388 16.732-8.098 28.602-17.844 35.063-9.745 6.46-20.794 7.808-31.125 9.094-10.33 1.286-20.177 2.39-28.156 5.75-7.977 3.36-14.36 8.38-19.468 19.78-7.2 16.076-7.143 28.027-3.124 38.563 4.018 10.537 12.688 20.106 24.687 28.75 23.998 17.29 60.27 29.956 88.906 41.844 11.386 4.727 20.496 6.484 27.282 6.126 6.787-.358 11.278-2.423 15.375-6.562 8.195-8.28 14.057-27.692 15-57.344 2.024-63.623-18.84-110.284-38.656-130.875-8.668-9.008-16.52-12.193-21.03-12.188zm184.22 6.812c-.95-.003-1.927.035-2.97.094-35.464 1.99-48.477 12.867-52.5 24.062-4.023 11.196.826 27.07 10.844 39.78 11.488 14.58 20.59 15.736 30.437 12.283 9.848-3.455 20.542-14.108 27.376-26.908s9.512-27.397 7.188-36.28c-1.163-4.443-3.144-7.422-6.47-9.626-2.908-1.928-7.274-3.388-13.905-3.406z"/></symbol><symbol id="icon-muscle-up" width="100%" viewBox="0 0 512 512" preserveAspectRatio="xMidYMid meet"><path d="M165.906 18.688C15.593 59.28-42.187 198.55 92.72 245.375h-1.095c.635.086 1.274.186 1.906.28 8.985 3.077 18.83 5.733 29.532 7.94C173.36 273.35 209.74 321.22 212.69 368c-33.514 23.096-59.47 62.844-59.47 62.844L179.5 469.53 138.28 493h81.97c-40.425-40.435-11.76-85.906 36.125-85.906 48.54 0 73.945 48.112 36.156 85.906h81.126l-40.375-23.47 26.283-38.686s-26.376-40.4-60.282-63.406c3.204-46.602 39.5-94.167 89.595-113.844 10.706-2.207 20.546-4.86 29.53-7.938.633-.095 1.273-.195 1.908-.28h-1.125c134.927-46.82 77.163-186.094-73.157-226.69-40.722 39.37 6.54 101.683 43.626 56.877 36.9 69.08 8.603 127.587-72.28 83.406-11.88 24.492-34.213 41.374-60.688 41.374-26.703 0-49.168-17.167-60.97-42-81.774 45.38-110.512-13.372-73.437-82.78 37.09 44.805 84.35-17.508 43.626-56.876zm90.79 35.92c-27.388 0-51.33 27.556-51.33 63.61 0 36.056 23.942 62.995 51.33 62.995 27.387 0 51.327-26.94 51.327-62.994 0-36.058-23.94-63.61-51.328-63.61z"/></symbol><symbol id="icon-triple-yin" width="100%" viewBox="0 0 512 512" preserveAspectRatio="xMidYMid meet"><path d="M203.75 20.47c-1.01.016-2.025.056-3.03.093-69.79 2.51-132.772 49.368-151.782 120.312-11.035 41.196 13.555 83.82 54.718 94.875v-.03c41.166 11.03 82.972-13.647 93.97-54.69 7.923-29.58 22.853-50.832 43.624-62.155 20.77-11.323 46.34-12.32 74.125-4.875 10.463 2.807 19.977 7.03 28.563 12.656 4.368-2.276 8.902-4.23 13.593-5.843-8.625-20.886-21.314-39.854-37.75-55.407h-.03c-.064-.06-.123-.127-.187-.187-19.01-17.94-42.747-31.768-69.907-39.064-15.35-4.116-30.768-5.953-45.906-5.687zm-79.03 82.968c14.598 0 29.2 5.545 40.28 16.624 22.174 22.175 22.128 58.403-.03 80.563l-2.72 2.72h-.312c-22.33 19.338-56.345 18.467-77.532-2.72-22.174-22.174-22.16-58.403 0-80.563 11.088-11.087 25.713-16.626 40.313-16.624zm0 18.562c-9.78-.002-19.58 3.734-27.095 11.25-15.018 15.018-15.03 39.126 0 54.156 15.017 15.017 39.125 15.032 54.156 0 15.02-15.018 15.032-39.126 0-54.156-7.507-7.51-17.282-11.248-27.06-11.25zm143.343 7.063c-6.51 1.185-12.476 3.275-17.875 6.218-4.417 2.41-8.533 5.413-12.344 9.095 23.014.048 46.003 6.876 65.78 20.438 3.012-5.502 6.63-10.758 10.845-15.688-14.3-9.747-30.08-16.438-46.408-20.063zm119.718 5.343c-20.048.004-40.084 7.522-55.124 22.563-30.058 30.057-28.79 78.89 1.313 108.968 21.676 21.66 32.627 45.335 32.03 69.062-.598 23.727-12.554 46.43-32.906 66.78-9.87 9.872-21.2 16.368-32.875 20.845-.54 3.58-1.38 7.053-2.314 10.5 50.44 9.057 103.957-5.7 143.28-45 63.97-63.943 65.66-167.276 1.752-231.156-15.054-15.054-35.108-22.568-55.157-22.564zm-1.06 21.406c14.598.002 29.2 5.546 40.28 16.625 22.174 22.175 22.16 58.403 0 80.563-22.175 22.175-58.403 22.16-80.563 0-22.174-22.174-22.16-58.403 0-80.563 11.088-11.087 25.682-16.627 40.282-16.625zm0 18.563c-9.78-.002-19.548 3.766-27.064 11.28-15.017 15.02-15.03 39.096 0 54.126 15.017 15.018 39.094 15.033 54.125 0 15.02-15.017 15.032-39.093 0-54.124-7.507-7.508-17.282-11.28-27.06-11.28zm-147.25 15.03c-9.023 0-18.045 1.715-26.564 5.095-8.21 22.123-24.016 39.79-43.625 50.625-5.44 23.398.967 48.965 19.25 67.25.788.786 1.595 1.54 2.407 2.28 21.96-3.455 43.857.823 62.375 11.158l.768.316 7.326 3.932c10.58-3.39 20.552-9.27 28.97-17.687 12.41-12.41 19.362-28.18 20.843-44.344-12.14-16.447-18.558-35.98-19.033-55.592-.596-.64-1.188-1.283-1.812-1.907-14.092-14.09-32.493-21.124-50.906-21.124zM53.687 225.72C23.988 264.33 12.275 315.815 26 367.03c23.394 87.365 112.104 140.292 199.375 116.908.01-.003.02.003.03 0 41.136-11.06 66.126-54.206 55.126-95.313-4.106-15.327-12.586-28.302-23.718-37.875l-.218-.188c-18.772-16.008-45.2-22.64-70.907-15.75-29.576 7.933-55.557 5.666-75.843-6.625-20.287-12.29-34.017-33.912-41.47-61.718-2.738-10.267-3.397-20.456-2.843-30.158-4.223-3.207-8.168-6.725-11.843-10.593zm48.812 28.968c-.834 16.705 1.403 33.528 6.75 49.562 3.198 3.094 6.623 5.752 10.28 7.97 4.855 2.94 10.193 5.192 16.064 6.655-10.79-19.11-15.778-40.6-14.97-61.906-6.004-.174-12.06-.912-18.124-2.283zm240.78 57.093c-5.586 11.71-13.23 22.702-22.936 32.408-8.71 8.71-18.445 15.763-28.813 21.156 2.835 5.592 5.155 11.534 6.876 17.78 12.796-6.32 24.79-14.79 35.438-25.437 4.585-4.585 8.772-9.418 12.562-14.468.522-2.908.834-5.802.906-8.69.19-7.465-1.076-15.045-4.03-22.75zm-140 39.908c14.6.002 29.203 5.545 40.282 16.625 22.175 22.174 22.16 58.402 0 80.562-22.174 22.175-58.403 22.16-80.562 0-22.174-22.174-22.16-58.403 0-80.563 11.087-11.087 25.682-16.627 40.28-16.625zm0 18.562c-9.778-.002-19.546 3.766-27.06 11.28-15.02 15.02-15.032 39.096 0 54.126 15.016 15.017 39.092 15.032 54.124 0 15.017-15.018 15.03-39.094 0-54.125-7.51-7.507-17.283-11.278-27.063-11.28z"/></symbol><symbol id="icon-moebius-star" width="100%" viewBox="0 0 512 512" preserveAspectRatio="xMidYMid meet"><path d="M138.656 49.53l-.03 114.814 37.03-21.406-.03-11.844-.064-16.22 14.063 8.095 128.22 73.936-.033-50.53-.906.53-4.687 2.72-4.658-2.72-50.78-29.312-.094.062L138.656 49.53zm236.094 0l-99.313 57.314 36.75 21.187 10.282-5.968 14.03-8.124v16.218l.063 147.375 43.03-24.874-.5-.312-4.28-2.75v-5.125l-.032-58.626v-60.72l-.03-45.78V49.53zm-180.406 97.72V153.72l-4.688 2.718-142.97 82.593-.03-.06L20.594 254 120 311.406l.125-43.344-10.688-5.937-14.437-8 14.28-8.25 127.907-73.906-42.843-24.72zm61.53 35.5l-52.124 30.125 50.938 31.406 52.125-32.155-50.938-29.375zm137.595 13.906l.03 42.72 9.094 5.843 12.875 8.28-13.25 7.688L273 335.813l44.813 25.843v-6.468l4.687-2.688 52.28-30.188v-.156L492.814 254l-99.344-57.344zm-75.626 30.625L272.5 255.25l45.375 27.97-.03-55.94zm-141.375 1.345l-43.5 25.156 1.06.595 4.845 2.688-.03 5.53-.22 71.344.03 124.532 99.095-57.19-36.938-21.31-10.25 5.936-14.03 8.156v-16.218l-.063-149.22zm18.686.875l.03 51.47 41.72-25.72-41.75-25.75zm59.53 36.72l-49.436 30.5 49.094 28.31 49.437-28.53-49.092-30.28zm-59.5 46.28l.033 49.094.905-.53 4.656-2.69 4.69 2.688 50.968 29.407.25-.126L374.75 458.47l.03-114.595L336.5 366l.03 11.844.064 16.22-14.063-8.127L195.19 312.5z"/></symbol><symbol id="icon-ubisoft-sun" width="100%" viewBox="0 0 512 512" preserveAspectRatio="xMidYMid meet"><path d="M194.53 19.656L181.47 62.25l27.624 6.563 19.5-17.5-34.063-31.657zm125.94.063l-32.626 30.343 20.656 19.5 25.625-5.407L320.47 19.72zm-64.94 59.405c-14.046.215-28.287 2.138-42.468 5.938-93.08 24.94-148.472 120.887-123.53 213.968 7.604 28.38 21.823 53.248 40.53 73.408.176.252.355.498.532.75l.094-.063c42.67 45.493 108.4 66.657 172.78 49.406C396.55 397.59 451.942 301.676 427 208.595 406.735 132.964 339.604 82.24 265.22 79.25c-3.22-.13-6.447-.175-9.69-.125zM85.47 82.563L95.437 126l27.218-8.156 8.125-24.875-45.31-10.407zm344.03.187l-43.47 9.97 8.158 27.218 24.875 8.124L429.5 82.75zm-170.72 15c1.93.004 3.865.05 5.783.125 66.473 2.61 126.234 47.86 144.375 115.563 22.327 83.325-26.957 168.735-110.282 191.062-57.286 15.35-115.544-3.167-153.625-43.313l-.03-.03c-7.722-11.214-13.966-23.47-18.406-36.313-24.473-70.782 10.592-153.698 82.937-178.5 60.946-20.893 132.18 9.025 153.22 70.75 17.63 51.725-8.105 112.282-60.938 130.125-44.027 14.868-95.41-6.862-110.343-51.376-12.367-36.86 6.033-79.954 43.624-92.438 30.914-10.267 66.952 5.034 77.22 36.188 8.03 24.378-3.386 52.733-27.127 62.437 10.773-10.378 15.78-26.178 11.657-41.56-5.275-19.686-23.813-32.462-43.438-31.314-2.803.164-5.657.59-8.47 1.344-22.494 6.028-35.964 29.41-29.936 51.906.695 2.594 1.623 5.068 2.75 7.406.022.052.04.106.063.157.07.145.145.29.218.436 11.972 26.708 41.876 39.625 69.876 30.5 36.25-11.814 53.642-52.3 42.156-87.156-13.713-41.614-60.582-61.476-100.875-48.094-47.956 15.927-70.97 69.85-55.437 116.156 18.427 54.928 80.65 81.133 134.063 63.094 63.153-21.328 93.476-92.667 72.625-153.844-19.966-58.576-77.885-92.29-136.625-89.937-13.556.543-27.156 3.01-40.344 7.53-56.145 19.25-92.422 68.7-101.22 123.595.602-68.348 46.356-130.556 115.656-149.125 13.67-3.663 27.38-5.402 40.875-5.375zM66.876 177.938l-44.438 13.625 30.344 32.656 19.5-20.657-5.405-25.625zm382.906.812l-6.56 27.625 17.5 19.5 31.686-34.063-42.625-13.062zm-193.155 69c10.227.247 19.356 7.11 22.156 17.563 3.415 12.74-3.98 25.586-16.717 29-11.147 2.986-22.387-2.31-27.313-12.22-.466-1.12-.896-2.274-1.28-3.468l-.126.03c-.114-.356-.215-.726-.313-1.092-3.412-12.74 4.013-25.587 16.75-29 1.594-.427 3.205-.683 4.782-.782.69-.042 1.38-.046 2.063-.03zM54.03 283.47L22.376 317.5l42.594 13.094 6.56-27.656-17.5-19.47zm407.94 1.655l-19.5 20.656 5.405 25.626 44.438-13.656-30.344-32.625zM95.686 381.25L85.28 426.594l43.44-9.97-8.157-27.218-24.876-8.156zm323.625 2.094l-27.218 8.125L384 416.374l45.313 10.406-10-43.436zm-213.03 56.406l-25.626 5.406 13.625 44.438 32.657-30.344-20.656-19.5zm99.374.75l-19.5 17.5 34.063 31.688 13.092-42.625-27.656-6.563z"/></symbol><symbol id="icon-sunrise" width="100%" viewBox="0 0 512 512" preserveAspectRatio="xMidYMid meet"><path d="M259.375 16.25c-132.32 0-239.78 107.46-239.78 239.78s107.46 239.783 239.78 239.783 239.78-107.462 239.78-239.782-107.46-239.78-239.78-239.78zm33.5 20.406c26.563 4.015 51.57 12.708 74.156 25.25L308.907 209.03c-14.573-7.215-30.96-11.344-48.312-11.53l32.28-160.844zm-67.72.094l23.97 161.22c-17.2 1.56-33.28 6.986-47.313 15.436l-51-151c22.616-12.698 47.696-21.54 74.344-25.656zm193.25 64.5c17.683 18.164 32.28 39.32 42.94 62.688l-107.658 85.468c-8.9-14.076-20.863-26.014-34.968-34.875l99.686-113.28zm-319.092 1.063L192.5 219.686c-13.318 9.978-24.317 22.88-32.063 37.75L56.5 166c10.527-23.725 25.082-45.226 42.813-63.688zm378.75 115.906c2.105 12.286 3.218 24.92 3.218 37.81 0 11.49-.882 22.768-2.56 33.783l-107.876 16.062c-.463-17.028-4.757-33.097-12-47.375l119.22-40.28zM40.25 221.093l115.844 45.75c-4.918 12.077-7.81 25.224-8.188 39l-107.844-16.03c-1.678-11.016-2.562-22.295-2.562-33.783 0-11.89.954-23.554 2.75-34.936zm130.563 89.53h177.125L467 334.532c-31.674 83.843-112.62 143.376-207.625 143.376-95.018 0-175.968-59.548-207.625-143.406l119.063-23.875z"/></symbol><symbol id="icon-sun" width="100%" viewBox="0 0 512 512" preserveAspectRatio="xMidYMid meet"><path d="M320.063 19.72c-72.258 14.575-19.248 71.693-74.344 108.81 4.846-.49 9.746-.702 14.655-.624 16.288.26 32.785 3.72 48.594 10.72 4.96 2.196 9.723 4.667 14.25 7.405 12.107-47.476-37.103-96.38-3.158-126.31zM136.75 44.47c-40.76 61.357 36.984 64.33 24.406 129.405 17.407-21.255 41.17-35.9 67.156-42.313-25.006-42.138-94.4-41.924-91.562-87.093zm297.313 75.405c-32.547.872-45.475 46.314-96.594 36.22 21.35 17.42 36.034 41.25 42.467 67.31 42.306-24.92 42.053-94.466 87.282-91.624-13.43-8.92-24.06-12.15-33.158-11.905zm-177.97 26.656c-23.656.46-46.53 8.82-64.906 23.626l18.657 36.156L170 193.156c-3.576 5.264-6.737 10.908-9.406 16.938-8.726 19.708-11.002 40.59-7.78 60.344l44.78 2.125-34 30.312c10.798 20.622 28.414 37.852 51.406 48.03 3.077 1.364 6.186 2.574 9.313 3.626l24.53-38.25 9.095 43.814c27.3.075 53.737-10.387 73.593-29.188l-19.186-37.125 38.406 12.658c1.822-3.188 3.512-6.506 5.03-9.938 9.746-22.01 11.457-45.498 6.44-67.22l-37.626-1.75 27.687-24.718c-10.83-20.194-28.236-37.07-50.874-47.093-1.37-.607-2.745-1.176-4.125-1.72l-25.874 40.313-9.906-47.75c-.5-.016-1-.023-1.5-.032-1.3-.02-2.61-.024-3.906 0zM133.407 186.5c-41.652.725-82.483 34.847-108.72 5.094 14.573 72.234 71.664 19.3 108.783 74.312-2.154-20.972.934-42.758 10.06-63.375 2.178-4.915 4.637-9.604 7.345-14.093-5.822-1.47-11.642-2.038-17.47-1.937zm249.5 53.97c2.204 21.047-.867 42.926-10.03 63.624l-.188.375c-2.143 4.796-4.57 9.393-7.22 13.78 47.524 12.244 96.507-37.137 126.47-3.156-14.603-72.388-71.92-19.04-109.032-74.625zM136.53 283.405c-42.123 25.014-41.928 94.37-87.093 91.53 61.422 40.803 64.322-37.123 129.594-24.342-21.344-17.385-36.03-41.167-42.5-67.188zm219.064 48.906c-17.406 21.46-41.236 36.24-67.344 42.72 24.944 42.263 94.497 42.004 91.656 87.218 40.867-61.52-37.402-64.358-24.312-129.938zM193.406 360.72c-12.047 47.456 37.087 96.33 3.156 126.25 72.305-14.587 19.195-71.79 74.47-108.908-21.04 2.204-42.898-.9-63.594-10.062-4.884-2.162-9.57-4.594-14.032-7.28z"/></symbol><symbol id="icon-moon" width="100%" viewBox="0 0 512 512" preserveAspectRatio="xMidYMid meet"><path d="M253.125 18.563c-131.53 0-238.375 106.813-238.375 238.343 0 131.53 106.846 238.344 238.375 238.344 131.53 0 238.344-106.815 238.344-238.344 0-131.528-106.816-238.344-238.345-238.344zm-23.938 52.093c40.517 0 77.988 12.904 108.532 34.813-5.597-.624-11.302-.97-17.064-.97-84.157 0-152.375 68.25-152.375 152.406 0 84.157 68.22 152.375 152.376 152.375 5.762 0 11.467-.313 17.063-.936-30.545 21.91-68.016 34.812-108.533 34.812-102.98 0-186.28-83.272-186.28-186.25 0-102.977 83.3-186.25 186.28-186.25z"/></symbol><symbol id="icon-night-sky" width="100%" viewBox="0 0 512 512" preserveAspectRatio="xMidYMid meet"><path d="M253.813 15.625c-132.32 0-239.782 107.46-239.782 239.78s107.463 239.782 239.782 239.782c132.32 0 239.782-107.46 239.782-239.78S386.132 15.624 253.814 15.624zm0 17.906c122.653 0 221.906 99.223 221.906 221.876 0 30.738-6.26 59.99-17.533 86.594l-42.343-34.72c-49.613 13.98-110.337 9.033-138.906-60.874l-41.97 152.938c-8.837-45.53-23.35-81.28-47.905-115.22-19.71 13.855-32.352 32.63-39.72 50.97L88.94 237.03c-17.85 27.32-33.77 56.565-45.032 90.47-7.744-22.6-11.968-46.852-11.968-72.094 0-26.013 4.484-50.973 12.687-74.156 2.752 6.608 9.27 11.25 16.875 11.25 10.093 0 18.28-8.157 18.28-18.25s-8.187-18.28-18.28-18.28c-2.385 0-4.66.48-6.75 1.31 27.537-55.83 77.83-98.368 138.844-115.5-.558 1.938-.844 3.98-.844 6.095 0 12.146 9.823 22 21.97 22 12.144 0 22-9.854 22-22 0-4.99-1.67-9.59-4.47-13.28 7.092-.683 14.29-1.064 21.563-1.064zm18.75 27.657c-6.444 0-11.657 5.213-11.657 11.657 0 6.443 5.213 11.687 11.656 11.687 6.444 0 11.688-5.243 11.688-11.686 0-6.444-5.244-11.656-11.688-11.656zM198.03 90.22c-6.02.06-12.132.868-18.218 2.5-38.945 10.434-62.06 50.46-51.625 89.405 10.436 38.946 50.463 62.06 89.407 51.625 21.712-5.818 38.48-20.85 47.28-39.75-6.835 7.36-15.737 12.958-26.155 15.75-29.504 7.905-59.846-9.59-67.75-39.094-7.907-29.504 9.62-59.813 39.124-67.72 10.41-2.788 20.906-2.417 30.5.533-12.28-8.598-27.116-13.405-42.563-13.25zm155.282.81c-9.408 0-17.03 7.624-17.03 17.032 0 9.41 7.622 17.032 17.03 17.032 9.41 0 17.032-7.623 17.032-17.03 0-9.41-7.623-17.033-17.03-17.033zm-248.937 27.376c-6.443 0-11.656 5.244-11.656 11.688 0 6.443 5.212 11.656 11.655 11.656s11.656-5.213 11.656-11.656c0-6.444-5.212-11.688-11.655-11.688zm275.688 40.813l-.625 29.843-28.22 9.812 28.22 9.813.625 29.843 18.03-23.78 28.563 8.625-17.03-24.5 17.03-24.53L398.094 183l-18.03-23.78zm-72.094 11.593c-6.445 0-11.658 5.212-11.658 11.656 0 6.442 5.213 11.686 11.657 11.686 6.442 0 11.686-5.244 11.686-11.687 0-6.445-5.244-11.657-11.687-11.657zm139 74.75c-6.445 0-11.658 5.244-11.658 11.687s5.213 11.656 11.657 11.656c6.442 0 11.686-5.213 11.686-11.656 0-6.443-5.244-11.688-11.687-11.688zm-127.314 3.5c-6.443 0-11.656 5.244-11.656 11.687s5.213 11.656 11.656 11.656c6.444 0 11.656-5.213 11.656-11.656 0-6.443-5.212-11.688-11.656-11.688z"/></symbol><symbol id="icon-small-fire" width="100%" viewBox="0 0 512 512" preserveAspectRatio="xMidYMid meet"><path d="M162.22 21.312c-183.876 106.68 51.994 227.35-10.19 332.47C116.95 413.083 38.11 325.45 43.75 227-6.035 353.376 30.21 443.745 95.22 492.75c1.386.34 17.577.498 41.186.562-28.478-16.9-32.06-75.355 32.813-103.25l15.78-7L182.062 400c-1.356 8.34-.318 13.95 1.188 16.937 1.507 2.987 3.106 3.544 5.844 4.094 5.475 1.1 16.963-2.395 26.28-14.624 18.636-24.457 29.117-80.228-26.874-167l-4.094-6.437-13.906-19.25 23.25 9.905 5.25 1.75c80.85 25.498 135.3 58.46 174.625 112.72 21.544-22.906 38.7-56.835 43.812-91.69l3.5-27.468 13.438 23.97c25.525 45.802 30.267 104.912 11.094 156.5-14.23 38.28-42.036 72.34-84 93.5 13.623-.01 24.05.032 25.25.124 154.76-34.77 139.345-244.952-14.19-394.093.012.726 0 1.46 0 2.188 78.964 185.87-136.465 189.104-119.25 11.47-41.686 100.463-132.86-2.147-91.06-91.283zM269.093 332.25c13.51 15.806 22.35 33.086 22.78 50.812.587 24.03-9.293 47.12-24.53 66.563-14.832 18.926-34.837 34.62-56.625 43.656 33.127-.065 64.926-.16 95.217-.25l-.062-.186c30.95-18.584 47.31-38.83 53.75-57.813 6.44-18.982 3.25-37.246-5.844-53.718-15.44-27.97-49.705-47.71-84.686-49.062z"/></symbol><symbol id="icon-big-wave" width="100%" viewBox="0 0 512 512" preserveAspectRatio="xMidYMid meet"><path d="M319.406 75.156c-50.542.49-104.39 20.876-150.094 72.844-10.232 9.65-19.88 19.59-29.187 29.313-20.516 21.433-39.694 41.877-60.22 56.468-18.484 13.142-37.73 21.617-61 22.75v89.876c53.93-32.793 59.934-67.832 115.595-136.312 6.38-6.524 12.727-13.19 19.125-19.875 9.96-10.407 20.016-20.803 30.563-30.657 46.422-36.83 92.022-27.93 107.218 2.5 4.6-49.27 57.958-30.564 66.813 18.875 6.91-33.696 20.327-44.354 34.03-31.625-28.136 49.585-26.61 110.87-8.406 164.937 20.51 60.915 61.743 114.13 110.344 133.75v-20.563c-38.34-19.194-74.662-65.71-92.657-119.156-15.937-47.336-17.777-99.07 2.75-141.655 8.492 16.92 16.342 43.406 21.94 79.53 17.992-84.587 54.762-72.463 56.624-10.593 42.998-66.287-52.197-161.48-163.438-160.406zm-35.656 95.78C194.225 181.69 66.158 359.648 43.625 494.97h91.25c1.02-133.954 71.114-282.045 148.875-324.033zm32.406 13.69c-76.76 49.056-114.574 208.732-109.812 310.343h78.437c-41.213-80.74-23.207-252.666 31.376-310.345zm21.875 26.218c-34.686 82.23-25.705 191.077 25.158 284.125h78c-75.605-53.774-120.09-190.455-103.157-284.126z"/></symbol><symbol id="icon-splurt" width="100%" viewBox="0 0 512 512" preserveAspectRatio="xMidYMid meet"><path d="M223.78 18.563c-13.577.267-26.252 13.425-16.81 33.062 17.045 35.465 29.126 53.574 45.936 81.906.43-31.648-.522-56.963-6.25-92.436v-.032c-2.586-16.03-12.967-22.695-22.875-22.5zm199.876 3.812c-1.272-.007-2.56.026-3.906.125-57.393 4.222-115.434 43.967-128.78 88.594 23.13-27.564 75.967-45.43 133.186-41.72 42.626 2.766 38.924-46.78-.5-47zM100.28 80.72c-7.754.096-15.632.908-23.5 2.468-57.75 11.446-46.283 90.25 9.19 67.062 63.716-26.63 102.673-15.477 131.78 20.688 1.942-46.08-54.322-91.015-117.47-90.22zM368.22 100c-3.29.052-6.453.287-9.44.75-41.463 6.433-62 23.806-67.374 76.125 35.677-42.483 73.564-36.43 127.656 34.53 47.092 61.784 110.826-19.008 53.594-69.124-28.248-24.736-72.65-42.786-104.437-42.28zM143.28 207.656c-26.534-.027-49.802 1.334-80.843 6.344C24.443 220.13 39.03 270.016 73 253.688c35.465-17.046 53.578-29.124 81.906-45.938-3.956-.054-7.834-.09-11.625-.094zm81.282 17.188C159.165 234.252 98.376 273.34 36.095 347.75c-50.007 59.747 32.842 116.914 70.75 46.97 43.54-80.347 77.52-124.72 117.72-169.876zM318.625 228c34.243 46.835 48.228 65.114 59.22 150.72 9.567 74.527 102.045 37.72 78.342-31.94-29.52-86.757-74.398-104.678-137.562-118.78zm-43.47 68.594c-27.59 59.063-36.883 87.625-45.75 139.875-12.43 73.245 83.39 75.698 81.064-.19-1.33-43.354-17.064-91.402-35.314-139.686zm-56.592 12.344c-27.555 39.625-44.235 69.134-65.813 110.312-20.713 39.53 35.78 60.664 44.22 17.78 8.812-44.765 17.524-90.11 21.593-128.092z"/></symbol><symbol id="icon-droplets" width="100%" viewBox="0 0 512 512" preserveAspectRatio="xMidYMid meet"><path d="M107.156 17.72c-22.515 130.852-89.5 157.227-89.5 248.968 0 46.03 45.485 79.843 89.5 79.843 1.7 0 3.402-.066 5.094-.155.82-6.47 1.875-12.74 3.125-18.844-2.962.39-5.995.595-9.063.595-38.51 0-69.656-31.488-69.656-70.72 0-39.23 31.145-70.717 69.656-70.717.576 0 1.147.017 1.72.03-17.205 9.417-28.876 28.2-28.876 49.5 0 27.927 20.063 51.5 46.344 55.345 10.542-29.276 25.437-55.543 41.125-83.125 3.053-5.368 6.148-10.822 9.25-16.344-20.93-44.947-53.572-89.35-68.72-174.375zm296.531 0c-14.905 86.624-49.318 127.455-70.875 171.78 4.337 8.4 8.666 16.6 12.907 24.625.27.514.54 1.018.81 1.53 12.664-17.583 33.143-28.968 56.283-28.968.585 0 1.167.017 1.75.032-17.214 9.413-28.907 28.192-28.907 49.5 0 30.555 24.045 55.905 53.938 55.905 16.704 0 31.57-7.9 41.437-20.22-6.557 32.216-34.585 56.22-68.217 56.22-3.16 0-6.266-.245-9.313-.656 1.425 6.11 2.654 12.378 3.656 18.78 2.18.163 4.354.28 6.53.28 45.005 0 87.752-31.642 87.752-75.342 0-88.064-64.484-122.863-87.75-253.47zM256.72 52.47c-18.814 73.33-47.047 123.11-71.69 166.436-29.68 52.186-53.686 94.326-53.686 161.313 0 31.412 15.432 58.706 39.094 78.624 23.66 19.917 55.448 31.906 86.125 31.906 31.66 0 62.733-11.278 85.468-29.906 22.736-18.628 37.095-44.098 37.095-73.78 0-64.192-23.26-108.428-52.125-163.064-23.955-45.34-51.36-97.692-70.28-171.53zm-1.5 212.56c6.448 0 12.75.62 18.874 1.75-31.1 8.977-53.844 38.675-53.844 73.5 0 41.822 32.78 76.314 73.47 76.314 28.857 0 53.72-17.368 65.75-42.375-1.763 57.015-47.717 102.374-104.25 102.374-57.654 0-104.314-47.18-104.314-105.78 0-58.603 46.66-105.783 104.313-105.783z"/></symbol><symbol id="icon-light-thorny-triskelion" width="100%" viewBox="0 0 512 512" preserveAspectRatio="xMidYMid meet"><path d="M182.3 27.76c-41.66 1.55-71.98 12.64-87.075 33.57-14.996 20.793-19.073 42.025-14.512 60.627l-28.9 37.893 44.15-9.817c9.06 9.9 21.452 17.84 36.494 22.88l.002.003c6.794 2.277 14.524 2.72 22.747 1.652l27.195 35.223 1.9-44.196c11.947-5.58 23.89-13.31 34.718-22.432 26.5-22.323 49.584-22.368 71.337 1.05 8.008 8.618 13.16 22.295 14.002 39.376l-41.3 5.558 38.694 24.616c-2.876 13.822-8.135 28.82-16.234 44.478-7.02 9.738-17.588 11.617-29.06 14.27v-.01c-26.697 5.474-44.733 17.682-56.735 34.3l-40.295-8.962 27.004 35.408c-5.565 16.46-7.995 35.085-8.66 54.656-.776 22.924-8.376 38.922-21.374 49.168l-23.673-30.664-1.823 42.39c-3.77.893-7.728 1.58-11.877 2.054-32.66 3.72-53.188-13.49-57.886-43.522l42.24-17.642-41.546-13.07c8.317-36.64 45.123-44.226 84.47-14.94-10.21-30.046-37.793-46.61-64.24-43.11l-34.695-30.7 6.337 43.107c-16.922 13.644-28.333 37.456-27.002 68.472l.002-.002c1.07 24.91 8.987 44.425 21.97 58.442l-5.603 43.533 28.908-26.523c14.04 6.71 30.718 9.905 49.143 9.525 28.805-.594 50.39-11.277 65.258-28.512l44.166 9.822-28.107-36.85c4.906-12.356 7.854-26.206 8.905-40.978 2.993-42.106 10.98-67 49.666-81.19 22.4-4.78 31.46 11.123 44 25.118 11.763 14.17 24.682 26.702 38.36 36.576l-5.956 46.278 33.45-30.694c28.676 11.837 59.32 10.656 88.874-11.508l41.772 17.157-21.6-41.423c15.304-31.94 7.437-78.643-23.68-116.072l18.168-34.85-36.265 14.898c-25.836-30.966-33.752-64.36-31.635-98.392l36.506-1.57-32.885-25.386c3.827-19.143 10.12-38.337 17.535-57.274-36.752 33.445-53.902 87.657-45.008 138.612l-27.043 20.877 32.71 1.405c6.93 20.493 18.49 39.818 35.142 56.267 10.972 10.84 18.435 21.89 23.017 32.54l-38.93 24.767 44.52 5.993c-1.05 13.187-6.81 24.267-15.57 31.41-36.14 29.463-71.665 4.02-99.827-24.9l-.004-.004c-11.303-14.4-29.244-23.823-19.684-45.554.5-1 .98-2 1.46-2.998.315-.593.63-1.187.984-1.8.703-1.215 1.193-2.397 1.508-3.542 22.616-50.238 21.588-97.116 2.597-128.728l20.597-39.502-40.066 16.46c-18.2-15.797-38.248-19.94-58.718-15.907l-28.97-33.874.32 44.435c-6.61 3.508-13.192 7.694-19.704 12.452-23.043 16.84-39.83 25.03-52.455 19.934-28.463-11.493-35.17-30.53-29.707-49.676l41.922 9.323-27.156-35.606c13.57-16.16 33.6-29.476 52.71-34.197z"/></symbol><symbol id="icon-earth-spit" width="100%" viewBox="0 0 512 512" preserveAspectRatio="xMidYMid meet"><path d="M332.594 201.938l-44.188 84.468 109.063 9.188 62.124-7.938-35.53 20.5 13.53 9.188 56.937 10.562v-92.5l-39.31-29.53 7.5 33.718-62.845-24.688 4.188 26.125-71.47-39.093zm-129.063.593L74.157 242.97l20.625-35.25-72.874 27.686v217.47l88.75-46.97 10.47-44.5h-40.75l49.56-20.75 43.408-26.03L203.53 202.53zm143.126 107.532l-27.812 29.594 34.062 40.313 67.75 20.717 56.656 12.844-51.25 15.376 68.47 20.25v-102.25l-62.313-11.562-1.908-.375-1.625-1.095-28.437-19.313-53.594-4.5zM184.97 329.406l-43.22 25.938-13.875 59-.97 4.125-3.75 1.967-101.25 53.594v17.845h472.626v-23.22l-88.124-26.06-11.594-3.44 6.25-10.342 7.407-12.313-62.345-19.063-12.53 14.063 59.53 68.53-107.844-52.28 17.75-26.656-25.624-17.406-80.53 85.625 27.53-56.907-65.812-12.594 79-14.625 23.625-48.843-76.25-6.938z"/></symbol><symbol id="icon-tornado" width="100%" viewBox="0 0 512 512" preserveAspectRatio="xMidYMid meet"><path d="M265.143 16.73c-65.944 0-118.326 5.893-155.188 18.143-18.43 6.125-33.1 13.83-43.54 23.926-10.438 10.095-16.352 23.132-15.88 37.165l.006.172.013.17c2.75 39.093 15.275 72.883 33.394 103.4-30.092 26.304-22.554 56.57 55.328 71.47 6.504 6.985 13.16 13.85 19.877 20.653-44.976 17.343-44.457 38.22 40.79 40.582 10.873 10.84 21.557 21.703 31.767 32.744-34.54 3.67-70.755 11.923-106.7 26.227 33.16-5.943 79.682-8.487 124.244-6.436 27.66 32.73 49.995 67.74 60.193 108.84h19.207c-9.205-40.806-29.034-75.516-53.713-107.105 46.038 4.14 86.467 13.755 102.77 30.302-6.223 24.423-16.816 49.782-33.946 76.803h21.873c4.307-7.368 8.162-14.648 11.615-21.848 48.44-8.298 70.147-23.06 72.033-39.1 7.677-22.363-10.594-56.65-45.38-82.97-.028-8.232-.335-16.386-.842-24.474 62.557-8.128 63.666-38.01-5.163-51.105-3.74-30.33-7.695-60.182-7.425-90.93 91.998-21.19 74.89-59.455 13.513-83.942 1.79-5.373 3.767-10.793 5.998-16.28l.268-.66.164-.69c2.94-12.31-.722-24.506-8.666-33.145-7.944-8.64-19.33-14.517-32.955-19.07-27.25-9.103-64.2-12.71-103.623-12.843h-.031zm-.034 18.69c38.27.13 74.034 3.952 97.765 11.88 11.866 3.965 20.536 9.007 25.12 13.993 4.512 4.905 5.846 9.015 4.29 15.844-2.168 5.394-4.123 10.735-5.892 16.03-54.098-17.105-131.934-23.978-202.008-5.622 65.494.283 172.564 13.5 190.418 54.82-3.317 23.44-3.54 46-2.283 67.955-45.155-33.14-134.644-21.05-199.475 1.23 41.805-1.966 94.256 1.828 136.084 12.9-25.3 2.72-53.93 10.074-81.84 21.894 64.456-6.42 133.745 2.883 151.286 23.982l.123.996c-20.61-2.533-45.806-3.76-75.735-3.047-49.278 1.178-92.846 8.102-124.002 17.002-18.856-18.886-36.954-37.853-52.848-57.763 8.89-54.23 137.75-65.292 210.666-63.426-88.136-26.143-187.425-6.064-237.17 24.312-2.61-44.05 89.057-68.318 170.267-60.23-72.526-23.095-149-33.873-182.982-16.15 31.36-37.388 106.277-55.177 179.17-54.934-32.778-8.548-61.407-13.926-92-16.656 26.092-3.278 56.598-5.01 91.044-5.01zm51.73 249.873c25.132-.12 48.713 2.566 64.607 8.908 1.65 14.464 3.032 28.817 3.63 43.218-13.863-7.993-29.508-14.637-46.557-19.094 13.17 10.786 25.794 22.58 37.226 34.598-41.07-17.11-89.233-22.64-116.377-18.67 30.09 4.298 66.47 18.864 92.41 36.248-28.314-5.917-61.158-8.87-96.344-7.174-16.924-19.096-35.188-37.224-53.383-55.166 19.422-13.37 69.6-22.65 114.787-22.867z"/></symbol><symbol id="icon-twister" width="100%" viewBox="0 0 512 512" preserveAspectRatio="xMidYMid meet"><path d="M203.75 18.75c-30.807.152-58.2 2.922-79.375 7.656-15.057 3.367-26.967 7.8-34.313 12.344-7.345 4.545-9.187 8.14-9.187 10.72 0 2.578 2.32 7.302 9.906 13 3.283 2.463 7.427 4.992 12.25 7.5 12.58-26.887 60.835-36.463 106.25-36.75 19.47-.123 38.308 1.267 53.72 4.093-68.11 9.035-126.228 12.386-103.344 51.968 24.78-16.026 76.058-14.97 112.125-10.5-34.733 4.607-66.215 7.26-78.655 17.19 16.52 2.635 34.167 4.663 52.5 5.874 47.178 3.116 89.886.327 120-6.406 15.057-3.367 26.967-7.8 34.313-12.344 7.345-4.545 9.187-8.14 9.187-10.72 0-2.578-2.288-7.27-9.875-12.968-7.587-5.696-19.598-11.715-34.72-17.093C334.29 31.555 291.554 23.116 244.376 20c-11.795-.78-23.296-1.18-34.406-1.25-2.084-.013-4.166-.01-6.22 0zM74.094 72.906c-4.445 17.937-5.67 34.503-4.25 49.938.006.018-.007.044 0 .062 5.82 16.932 23.4 31.81 49.22 43.188 28.19 12.424 65.143 20.243 101.967 22.906 36.826 2.663 73.606.193 101.25-7.094.066-.017.124-.045.19-.062l.186.125c72.355-9.74 112.614-41.626 102.313-95.595-6.856 24.535-27.576 42.58-54.25 55.625 2.854-10.052 6.517-20.498 11.124-31.375-3.85 1.1-7.888 2.115-12.125 3.063-32.675 7.305-76.713 10.025-125.345 6.812-48.632-3.213-92.642-11.767-125.188-23.344-16.272-5.788-29.685-12.263-39.656-19.75-1.918-1.44-3.744-2.932-5.436-4.5zm7.562 93.406c11.72 25.393 30.867 47.514 53.563 67.907 10.904 7.757 26.756 14.574 45.28 19.405 25.235 6.58 55.16 9.846 83.5 9.656 25.045-.167 48.934-3.1 67.094-8.342 56.052-11.073 85.383-44.642 71.312-87.688-2.314 22.634-17.737 39.6-39.125 51.938-1.028-10.75-1.267-21.987-.405-33.813-9.994 6.235-22.157 10.986-35.844 14.594-30.526 8.045-68.822 10.472-107.342 7.686-38.52-2.786-77.172-10.8-108.188-24.47-10.954-4.826-21.063-10.442-29.844-16.874zm321.906 71.75c-4.685 14.62-14.652 26.757-28.25 36.188-1.862-5.797-3.624-11.708-5.218-17.78-6.943 5.897-15.767 10.318-25.938 13.905-21.858 7.71-50.187 11.394-80.03 11.594-26.414.176-53.918-2.413-78.782-7.94 22.057 16.116 44.73 31.753 65.562 47.876 20.303 8.023 48.924 7.27 73.97-.156 11.94-3.54 22.962-8.51 31.655-14.094 35.963-17.71 60.943-41.843 47.033-69.594zm10.657 59.375c.337 12.78-7.11 24.512-18.5 34.657-2.77-8.588-5.972-17.316-9.283-26.28-2.933 3.837-6.436 7.415-10.312 10.655-12.036 10.06-28.197 17.926-45.938 23.186-15.81 4.688-33.028 7.436-49.656 7.03 8.393 7.718 16.145 15.62 23 23.845 12.03 6.828 34.757 6.622 55.75-.06 5.846-1.862 11.49-4.14 16.658-6.69.076-.036.142-.086.218-.124 34.1-14.63 54.92-39.592 38.063-66.22zM44.593 363.781l66 96.94-80.03-55.47 19.873 48.47-32.718-21.033.593 61.313h290.843l-28.03-32.094L279.937 480l-52.532-43.813 5.813 37.375-77.064-81.156 20.438 71.25-132-99.875zm359.312 4.376c-1 .81-2.013 1.628-3.062 2.406-9.94 7.374-22.49 13.45-35.906 17.72-14.445 4.597-30.13 7.443-44.594 6.374 2.874 5.13 5.382 10.404 7.47 15.813 4.2 4.1 9.464 7.06 15.31 8.936l.345.438c44.033 10.426 81.254-3.684 74.905-48.094-1.93 8.424-7.29 15.254-14.78 20.563 1.134-8.125 1.125-16.143.31-24.157zm-69.656 67.938c2.15 17.584-.015 36.745-7.72 57.937 27.994-20.634 46.844-39.46 59-57.217-5.283 1.592-10.828 2.678-16.436 3.28-11.496 1.236-23.753.172-34.844-4z"/></symbol><symbol id="icon-spectre" width="100%" viewBox="0 0 512 512" preserveAspectRatio="xMidYMid meet"><path d="M282.83 18.877c21.567 6.146 36.328 15.205 40.572 28.77-1.367.74-2.725 1.518-4.066 2.363-25.655 5.807-53.084 18.634-81.047 34.363 20.225-4.69 36.705-4.42 47.544 3.324-5.712 10.3-10.797 22.294-15.123 36.06-21.343 67.922-125.678-80.577-189.065-5.255C41.47 166.24 92.702 212.342 26.5 294.29c35.583-4.14 45.11-9.47 62.416-36.21 10.44-16.13 28.52-22.1 44.668-21.45-12.718 11.206-25.786 30.354-38.21 59.895 19.832-18.528 44.927-38.68 71.603-40.005.912 6.354-2.408 13.74-12.008 21.418C93.21 327.327 15.58 364.185 19.83 476.504c5.558-11.267 11.646-20.31 17.574-28.617 5.98 29.582 28.2 53.8 92.99 40.482-46.928-6.407-76.268-59.586-45.355-82.528 62.716-46.544 128.82 1.436 269.9-75.342 2.475-1.346 4.86-2.49 7.164-3.46-2.246 19.6-12.367 39.84-22.362 57.14 14.26-10.38 25.415-20.147 33.928-29.262 2.14 26.14-11.748 54.65-25.393 78.268 43.26-31.49 61.19-57.976 63.207-78.422 9.334 36.678-1.895 95.547-25.03 123.492 77.553-39.433 106.608-77.127 109.76-190.664 1.662-59.824-66.23-60.536-56.435-101.344 11.945-49.756 6.768-84.69-7.565-107.947-19.6-49.73-79.99-59.74-149.385-59.423zM89.8 47.684C54.69 47.534 45.233 83.056 55.724 117c17.146-51.504 70.414-44.24 111.17-34.367-33.282-25.005-58.707-34.87-77.096-34.95zm254.595 30.742c18.643 21.37 29.373 43.02 10.105 65.732-26.562-16.677-26.985-39.252-10.105-65.732zm74.494 48.6c3.655-.013 7.78.35 12.473 1.09-1.706 30.506-14.4 33-46.634 32.154 8.335-22.146 14.416-33.176 34.16-33.245zm-84.677 40.316c9.652.1 20.258 2.84 30.598 8.918 44.65 26.246 21.934 73.314-4.1 74.78-15.174.855 1.443-23.842-16.17-38.476-15.258-12.678-38.596 12.53-45.204-5.78-8.218-22.693 10.21-39.696 34.877-39.442zm60.18 246.168c-24.195 27.825-58.89 60.1-99.444 31.41 16.625 45.643 68.87 70.465 99.443-31.41z"/></symbol><symbol id="icon-magnifying-glass" width="100%" viewBox="0 0 512 512" preserveAspectRatio="xMidYMid meet"><path d="M333.78 20.188c-39.97 0-79.96 15.212-110.405 45.656-58.667 58.667-60.796 152.72-6.406 213.97l-15.782 15.748 13.25 13.25 15.75-15.78c61.248 54.39 155.3 52.26 213.968-6.407 60.887-60.886 60.888-159.894 0-220.78C413.713 35.4 373.753 20.187 333.78 20.187zm0 18.562c35.15 0 70.285 13.44 97.158 40.313 53.745 53.745 53.744 140.6 0 194.343-51.526 51.526-133.46 53.643-187.5 6.375l.218-.217c-2.35-2.05-4.668-4.17-6.906-6.407-2.207-2.206-4.288-4.496-6.313-6.812l-.218.22c-47.27-54.04-45.152-135.976 6.374-187.502C263.467 52.19 298.63 38.75 333.78 38.75zm0 18.813c-30.31 0-60.63 11.6-83.81 34.78-46.362 46.362-46.362 121.234 0 167.594 10.14 10.142 21.632 18.077 33.905 23.782-24.91-19.087-40.97-49.133-40.97-82.94 0-15.323 3.292-29.888 9.22-43-4.165 20.485.44 40.88 14.47 54.907 24.583 24.585 68.744 20.318 98.624-9.562 29.88-29.88 34.146-74.04 9.56-98.625-2.375-2.376-4.943-4.473-7.655-6.313 45.13 8.648 79.954 46.345 84.25 92.876 4.44-35.07-6.82-71.726-33.813-98.72-23.18-23.18-53.47-34.78-83.78-34.78zM176.907 297.688L42.094 432.5l34.562 34.563L211.47 332.25l-34.564-34.563zM40 456.813L24 472.78 37.22 486l15.968-16L40 456.812z"/></symbol><symbol id="icon-icon" width="100%" viewBox="0 0 512 512" preserveAspectRatio="xMidYMid meet"/></svg>